<?xml version="1.0" encoding="utf-8"?>
<!-- Generator: Adobe Illustrator 27.1.1, SVG Export Plug-In . SVG Version: 6.00 Build 0)  -->
<svg version="1.1" id="Layer_1" xmlns="http://www.w3.org/2000/svg" xmlns:xlink="http://www.w3.org/1999/xlink" x="0px" y="0px"
	 viewBox="0 0 300 300" style="enable-background:new 0 0 300 300;" xml:space="preserve">
<style type="text/css">
	.st0{fill:#28AAE1;}
	.st1{fill:#EA1C67;}
</style>
<g>
	<path d="M30,197.8h2.6l5,14.1h-2.7l-0.9-2.5h-5.5l-0.9,2.5H25L30,197.8L30,197.8z M29.5,206.8h3.7l-1.9-5.3
		C31.3,201.5,29.5,206.8,29.5,206.8z"/>
	<path d="M38.6,200.6h2.6v1.3c0.7-0.9,1.8-1.5,3.2-1.5c1.8,0,3,0.7,3.7,1.9c0.8-1.2,2.1-1.9,3.7-1.9c3.1,0,4.6,1.8,4.6,4.7v6.8h-2.7
		v-6.6c0-1.6-0.8-2.7-2.5-2.7c-1.4,0-2.5,1-2.5,2.9v6.3h-2.6v-6.6c0-1.6-0.8-2.6-2.4-2.6c-1.5,0-2.5,1-2.5,3v6.2h-2.6L38.6,200.6
		L38.6,200.6z"/>
	<path d="M60.4,210.4v1.5h-2.6v-14.3h2.6v4.4c0.8-1,2.1-1.7,3.6-1.7c2.8,0,5.6,2.1,5.6,5.9s-2.8,5.9-5.5,5.9
		C62.6,212.1,61.2,211.4,60.4,210.4z M67.1,206.2c0-1.9-1.5-3.5-3.4-3.5s-3.3,1.5-3.3,3.5s1.4,3.5,3.3,3.5S67.1,208.1,67.1,206.2z"
		/>
	<path d="M72,208.9c1,0,1.6,0.6,1.6,1.6s-0.6,1.6-1.6,1.6s-1.6-0.6-1.6-1.6S71,208.9,72,208.9z"/>
	<path d="M79.5,197.8h4.8c2.9,0,5.1,2.2,5.1,5s-2.2,5-5.1,5h-2.2v4h-2.6L79.5,197.8L79.5,197.8z M82.1,200.2v5.2h2
		c1.5,0,2.6-1.2,2.6-2.6s-1.1-2.6-2.6-2.6L82.1,200.2L82.1,200.2z"/>
	<path d="M90.3,200.6h1.9v0c0-3.2,1.3-4.5,4.7-4.5h0.2v2.4c-2.1,0-2.3,0.5-2.3,2.1h2.3v2.3h-2.3v8.9h-2.6v-8.9h-1.9
		C90.3,202.9,90.3,200.6,90.3,200.6z"/>
	<path d="M98.2,197.6h2.6v14.3h-2.6V197.6z"/>
	<path d="M102,206.2c0-3.3,2.6-5.9,5.9-5.9s5.8,2.5,5.8,5.8v1h-9.2c0.4,1.6,1.6,2.7,3.5,2.7c1.5,0,2.6-0.8,3.1-2l2.1,1.2
		c-1,1.8-2.7,3.1-5.3,3.1C104.4,212.1,102,209.5,102,206.2L102,206.2z M104.6,204.9h6.4c-0.4-1.5-1.5-2.3-3.2-2.3
		S105.1,203.6,104.6,204.9z"/>
	<path d="M123.7,210.3c-0.8,1.1-2.2,1.7-3.7,1.7c-2.7,0-5.6-2.2-5.6-5.9s2.7-5.9,5.6-5.9c1.5,0,2.8,0.7,3.6,1.7v-1.4h2.6v11
		c0,3.2-2,5.8-5.8,5.8c-2.9,0-4.8-1.4-5.8-3.2l2.3-1.4c0.8,1.5,1.7,2.3,3.5,2.3c2,0,3.2-1.5,3.2-3.3L123.7,210.3L123.7,210.3z
		 M123.8,206.2c0-1.9-1.4-3.5-3.4-3.5s-3.4,1.5-3.4,3.5s1.5,3.5,3.4,3.5S123.8,208.1,123.8,206.2z"/>
	<path d="M127.4,206.2c0-3.3,2.6-5.9,5.9-5.9s5.8,2.5,5.8,5.8v1h-9.2c0.4,1.6,1.6,2.7,3.5,2.7c1.5,0,2.6-0.8,3.1-2l2.1,1.2
		c-1,1.8-2.7,3.1-5.3,3.1C129.8,212.1,127.4,209.5,127.4,206.2L127.4,206.2z M130.1,204.9h6.4c-0.4-1.5-1.5-2.3-3.2-2.3
		S130.5,203.6,130.1,204.9L130.1,204.9z"/>
	<path d="M139.9,206.2c0-3.7,2.7-5.9,5.6-5.9c1.5,0,2.8,0.6,3.6,1.6v-4.3h2.6v14.3h-2.6v-1.5c-0.8,1.1-2.2,1.7-3.7,1.7
		C142.7,212.1,139.9,209.9,139.9,206.2L139.9,206.2z M149.2,206.2c0-1.9-1.4-3.5-3.4-3.5s-3.4,1.5-3.4,3.5s1.5,3.5,3.4,3.5
		S149.2,208.1,149.2,206.2z"/>
	<path d="M154.6,196.2c1,0,1.6,0.7,1.6,1.6s-0.6,1.6-1.6,1.6s-1.6-0.6-1.6-1.6S153.6,196.2,154.6,196.2z M153.3,200.6h2.6v11.3h-2.6
		V200.6z"/>
	<path d="M157,206.2c0-3.3,2.6-5.9,5.9-5.9s5.8,2.5,5.8,5.8v1h-9.2c0.4,1.6,1.6,2.7,3.5,2.7c1.5,0,2.6-0.8,3.1-2l2.1,1.2
		c-1,1.8-2.7,3.1-5.3,3.1C159.4,212.1,157,209.5,157,206.2L157,206.2z M159.6,204.9h6.4c-0.4-1.5-1.5-2.3-3.2-2.3
		S160.1,203.6,159.6,204.9L159.6,204.9z"/>
	<path d="M169.9,200.6h2.6v1.4c0.8-1,1.9-1.6,3.4-1.6c2.8,0,4.5,1.8,4.5,4.8v6.7h-2.6v-6.4c0-1.8-0.9-2.8-2.6-2.8
		c-1.5,0-2.6,1.1-2.6,3.1v6.2h-2.6L169.9,200.6L169.9,200.6z"/>
	<path d="M181,209.3l2.4-1.2c0.5,1.1,1.5,1.6,2.7,1.6s1.9-0.6,1.9-1.4c0-0.8-1.2-1-2.6-1.3c-1.9-0.4-3.9-1-3.9-3.4
		c0-1.8,1.8-3.4,4.4-3.4c2.3,0,3.7,0.9,4.6,2.3l-2.2,1.1c-0.5-0.8-1.3-1.3-2.4-1.3c-1.2,0-1.8,0.6-1.8,1.2c0,0.8,0.9,0.9,2.6,1.3
		c1.9,0.4,4,1,4,3.4c0,1.6-1.4,3.7-4.6,3.7C183.5,212.1,181.9,211.1,181,209.3z"/>
	<path d="M191.2,200.6h1.9v-1.7l2.6-1.8v3.5h2.3v2.3h-2.3v4.2c0,2,0.3,2.3,2.3,2.3v2.4h-0.4c-3.5,0-4.6-1.1-4.6-4.7v-4.2h-1.9
		L191.2,200.6L191.2,200.6z"/>
	<path d="M203.6,204.8c0-4,3-7.2,7.2-7.2c2.9,0,5.2,1.5,6.4,3.6l-2.3,1.4c-0.9-1.6-2.2-2.4-4.1-2.4c-2.6,0-4.6,2.1-4.6,4.7
		s2,4.7,4.7,4.7c2.1,0,3.6-1.2,4.1-3.1h-4.5v-2.5h7.3v1c0,3.8-2.7,7.1-6.9,7.1S203.7,208.7,203.6,204.8L203.6,204.8z"/>
	<path d="M219.1,200.6h2.6v1.7c0.5-1.1,1.5-1.7,2.9-1.7c0.8,0,1.5,0.2,2,0.5l-1,2.5c-0.4-0.2-0.8-0.4-1.6-0.4
		c-1.5,0-2.3,0.8-2.3,2.8v6h-2.6L219.1,200.6L219.1,200.6z"/>
	<path d="M226.7,206.2c0-3.7,2.7-5.9,5.6-5.9c1.5,0,2.8,0.6,3.6,1.6v-1.4h2.6v11.3h-2.6v-1.5c-0.8,1.1-2.2,1.7-3.7,1.7
		C229.5,212.1,226.7,209.9,226.7,206.2L226.7,206.2z M236,206.2c0-1.9-1.4-3.5-3.4-3.5s-3.4,1.5-3.4,3.5s1.5,3.5,3.4,3.5
		S236,208.1,236,206.2z"/>
	<path d="M239.5,200.6h1.9v0c0-3.2,1.3-4.5,4.7-4.5h0.2v2.4c-2.1,0-2.3,0.5-2.3,2.1h2.3v2.3h-2.3v8.9h-2.6v-8.9h-1.9V200.6z"/>
	<path d="M248.8,196.2c1,0,1.6,0.7,1.6,1.6s-0.6,1.6-1.6,1.6s-1.6-0.6-1.6-1.6S247.8,196.2,248.8,196.2z M247.5,200.6h2.6v11.3h-2.6
		V200.6z"/>
	<path d="M251.6,200.6h2.6v1.4c0.8-1,1.9-1.6,3.4-1.6c2.8,0,4.5,1.8,4.5,4.8v6.7h-2.6v-6.4c0-1.8-0.9-2.8-2.5-2.8
		c-1.5,0-2.6,1.1-2.6,3.1v6.2h-2.6L251.6,200.6L251.6,200.6z"/>
	<path d="M272.4,210.3c-0.8,1.1-2.2,1.7-3.7,1.7c-2.7,0-5.5-2.2-5.5-5.9s2.7-5.9,5.6-5.9c1.5,0,2.8,0.7,3.6,1.7v-1.4h2.6v11
		c0,3.2-2,5.8-5.8,5.8c-2.9,0-4.8-1.4-5.8-3.2l2.3-1.4c0.8,1.5,1.7,2.3,3.5,2.3c2,0,3.2-1.5,3.2-3.3L272.4,210.3L272.4,210.3z
		 M272.5,206.2c0-1.9-1.4-3.5-3.4-3.5s-3.4,1.5-3.4,3.5s1.5,3.5,3.4,3.5S272.5,208.1,272.5,206.2z"/>
</g>
<g>
	<g>
		<path class="st0" d="M100.2,105c0.8-4.8,2.7-7.5,4.7-9.1c1.1-0.9,2.6,0.4,2,1.6c-3.2,6.4-1.4,14.9,2.1,22.9
			C105,115.6,101.7,110.2,100.2,105L100.2,105z"/>
		<path class="st0" d="M148.6,141c-4.8-4.4-18.5-15.8-18.7-22.7c-0.2-6.9-12,1.3,0.1,17.1c0,0-37.3-15.7-30.8-42.6
			c0.4-1.5-2.2-2-2.8-0.5c-2.7,6.3-11.4,23.3,19.6,51.7c21.4,19.6,31.3,21.4,33.5,38.3C149.5,182.1,167.8,158.5,148.6,141L148.6,141
			z"/>
		<path class="st0" d="M106.2,105.1c0,4.7,1.5,9.9,3.7,14.9c-1.4-6.1-1.4-12,1.4-16.6c0.7-1.2-0.7-2.6-1.9-1.8
			C108.3,102.4,107.2,103.5,106.2,105.1L106.2,105.1z"/>
	</g>
	<path class="st1" d="M194.9,89.5c-11.4-7.4-28.2-6.3-47.6,3c-14.1-7.8-31.8-7.4-31.8-7.4c26.4,8.4,31.9,23.2,31.9,23.2
		c14-9.9,32.3-11.6,39.8-6.9c20,12.5-4.4,58.5-29.1,76.3c34.6-19.7,48.1-44.6,49.1-62C207.8,104.4,203.3,94.9,194.9,89.5z"/>
	<circle class="st1" cx="174.7" cy="75" r="13.3"/>
</g>
<g>
	<path d="M43.8,222.3h3.7c2.6,0,4.2,1.9,4.2,4s-1.6,4-4.2,4h-2.9v3.4c0,0.4-0.3,0.8-0.8,0.8s-0.8-0.4-0.8-0.8v-10.6
		C43,222.7,43.4,222.3,43.8,222.3L43.8,222.3z M44.7,228.8h2.8c1.8,0,2.7-1.2,2.7-2.5s-0.9-2.5-2.7-2.5h-2.8V228.8L44.7,228.8z"/>
	<path d="M54.7,227.2H54c-0.4,0-0.7-0.3-0.7-0.7s0.3-0.7,0.7-0.7h0.7v-2.1c0-1.2,1-2.2,2.2-2.2h1c0.4,0,0.7,0.3,0.7,0.7
		s-0.3,0.7-0.7,0.7h-0.7c-0.5,0-0.8,0.4-0.8,0.8v2H58c0.4,0,0.7,0.3,0.7,0.7s-0.3,0.7-0.7,0.7h-1.7v6.5c0,0.4-0.4,0.8-0.8,0.8
		s-0.8-0.4-0.8-0.8L54.7,227.2L54.7,227.2z"/>
	<path d="M62,233.7c0,0.4-0.4,0.8-0.8,0.8s-0.8-0.4-0.8-0.8v-11.4c0-0.4,0.4-0.8,0.8-0.8s0.8,0.4,0.8,0.8V233.7z"/>
	<path d="M65.8,230.7c0.2,1.5,1.4,2.4,2.9,2.4c0.9,0,1.7-0.4,2.2-0.6c0.1-0.1,0.2-0.1,0.4-0.1c0.4,0,0.7,0.3,0.7,0.7
		c0,0.3-0.2,0.6-0.4,0.6c-0.3,0.2-1.4,0.8-2.9,0.8c-2.6,0-4.5-1.9-4.5-4.5s2.1-4.5,4.5-4.5s4.2,2,4.2,4.1c0,0.5-0.4,1.1-1,1.1
		L65.8,230.7L65.8,230.7z M65.8,229.4h5.6c-0.1-1.2-1.3-2.4-2.8-2.4S65.9,228,65.8,229.4z"/>
	<path d="M77.8,238.3c-2.5,0-3.8-1.5-3.8-2.1c0-0.4,0.3-0.7,0.8-0.7c0.3,0,0.5,0.1,0.6,0.3c0.5,0.5,1.3,1.1,2.4,1.1
		c1.4,0,2.4-0.5,2.4-1.3c0-1.2-2.7-0.9-2.7-2.4c0-0.6,0.4-0.9,0.4-0.9s-0.1,0-0.2,0c-1.8,0-3.5-1.4-3.5-3.4c0-1.9,1.6-3.4,3.4-3.4
		c0.8,0,1.7,0.3,2.3,0.8c0.4-0.5,0.9-0.8,1.6-0.8h0.2c0.4,0,0.7,0.3,0.7,0.7S82,227,81.6,227h-0.1c-0.4,0-0.7,0.4-0.7,0.8
		c0.2,0.4,0.3,0.8,0.3,1.3c0,1-0.5,1.7-0.8,2.2c-0.4,0.5-1.2,1-1.2,1.5c0,1.1,2.7,0.8,2.7,2.9C81.8,237.3,79.9,238.3,77.8,238.3
		L77.8,238.3z M77.6,231c1.1,0,2-0.9,2-2s-0.9-2-2-2s-2,0.9-2,2S76.5,231,77.6,231z"/>
	<path d="M84.5,230.7c0.2,1.5,1.4,2.4,2.9,2.4c0.9,0,1.7-0.4,2.2-0.6c0.1-0.1,0.2-0.1,0.4-0.1c0.4,0,0.7,0.3,0.7,0.7
		c0,0.3-0.2,0.6-0.4,0.6c-0.3,0.2-1.4,0.8-2.9,0.8c-2.6,0-4.5-1.9-4.5-4.5s2.1-4.5,4.5-4.5s4.2,2,4.2,4.1c0,0.5-0.4,1.1-1,1.1
		L84.5,230.7L84.5,230.7z M84.5,229.4h5.6c-0.1-1.2-1.3-2.4-2.8-2.4S84.7,228,84.5,229.4z"/>
	<path d="M113.3,233.7c0,0.4-0.3,0.8-0.8,0.8s-0.8-0.4-0.8-0.8v-4.1c0-1.6-1.1-2.6-2.4-2.6s-2.4,1-2.4,2.6v4.1
		c0,0.4-0.4,0.8-0.8,0.8s-0.8-0.4-0.8-0.8v-4.1c0-1.6-1.1-2.6-2.4-2.6s-2.4,1-2.4,2.6v4.1c0,0.4-0.4,0.8-0.8,0.8s-0.8-0.4-0.8-0.8
		v-3.9c0-2.5,1.8-4.2,4.1-4.2c1.2,0,2.2,0.5,3.2,1.6c0.9-1.2,2-1.6,3.2-1.6c2.2,0,4,1.7,4,4.2C113.3,229.8,113.3,233.7,113.3,233.7z
		"/>
	<path d="M116.7,222.1c0.6,0,1.1,0.5,1.1,1.1s-0.5,1.1-1.1,1.1s-1.1-0.5-1.1-1.1S116.1,222.1,116.7,222.1z M117.5,233.7
		c0,0.4-0.4,0.8-0.8,0.8s-0.8-0.4-0.8-0.8v-7.3c0-0.4,0.4-0.8,0.8-0.8s0.8,0.4,0.8,0.8V233.7z"/>
	<path d="M123.6,234.3h-0.9c-1.2,0-2.2-1-2.2-2.1v-5h-0.7c-0.4,0-0.7-0.3-0.7-0.7c0-0.4,0.3-0.7,0.7-0.7h0.7v-1.5
		c0-0.4,0.4-0.8,0.8-0.8s0.8,0.4,0.8,0.8v1.5h1.6c0.4,0,0.7,0.3,0.7,0.7s-0.3,0.7-0.7,0.7h-1.6v5c0,0.4,0.4,0.7,0.7,0.7h0.7
		c0.4,0,0.7,0.3,0.7,0.7S124,234.3,123.6,234.3L123.6,234.3z"/>
	<path class="st0" d="M142.1,223v10.8c0,0.4-0.4,0.8-0.8,0.8s-0.8-0.4-0.8-0.8v-4.9h-7.1v4.9c0,0.4-0.4,0.8-0.8,0.8
		s-0.8-0.4-0.8-0.8V223c0-0.5,0.4-0.8,0.8-0.8s0.8,0.4,0.8,0.8v4.5h7.1V223c0-0.5,0.4-0.8,0.8-0.8S142.1,222.5,142.1,223z"/>
	<path class="st0" d="M153,233.7c0,0.4-0.4,0.8-0.8,0.8s-0.8-0.4-0.8-0.8v-0.4c-0.6,0.7-1.5,1.3-2.9,1.3c-2.3,0-4.2-2-4.2-4.5
		s2-4.5,4.2-4.5c1.4,0,2.3,0.6,2.9,1.3v-0.4c0-0.5,0.4-0.8,0.8-0.8c0.4,0,0.8,0.4,0.8,0.8V233.7L153,233.7z M151.5,229.9
		c0-1.6-1.1-2.9-2.8-2.9s-2.9,1.4-2.9,3s1.2,3.1,2.9,3.1s2.8-1.3,2.8-3V229.9L151.5,229.9z"/>
	<path class="st0" d="M162.5,229.9c0-1.8-1.3-2.9-2.7-2.9s-2.7,1.1-2.7,2.9v3.8c0,0.4-0.4,0.8-0.8,0.8s-0.8-0.4-0.8-0.8V230
		c0-2.5,2-4.4,4.4-4.4s4.4,1.9,4.4,4.4v3.7c0,0.4-0.4,0.8-0.8,0.8s-0.8-0.4-0.8-0.8L162.5,229.9L162.5,229.9z"/>
	<path class="st0" d="M174.9,233.7c0,0.4-0.4,0.8-0.8,0.8s-0.8-0.4-0.8-0.8v-0.4c-0.6,0.7-1.5,1.3-2.9,1.3c-2.3,0-4.2-2-4.2-4.5
		s2-4.5,4.2-4.5c1.4,0,2.3,0.6,2.9,1.3v-4.6c0-0.5,0.4-0.8,0.8-0.8c0.4,0,0.8,0.4,0.8,0.8V233.7L174.9,233.7z M173.3,229.9
		c0-1.6-1.1-2.9-2.8-2.9s-2.9,1.4-2.9,3s1.2,3.1,2.9,3.1s2.8-1.3,2.8-3V229.9L173.3,229.9z"/>
	<path d="M183.5,230.2c0,1.8,1.3,2.9,2.7,2.9s2.7-1.1,2.7-2.9v-3.8c0-0.4,0.4-0.8,0.8-0.8s0.8,0.4,0.8,0.8v3.7c0,2.5-2,4.4-4.4,4.4
		s-4.4-1.9-4.4-4.4v-3.7c0-0.4,0.4-0.8,0.8-0.8s0.8,0.4,0.8,0.8L183.5,230.2L183.5,230.2z"/>
	<path d="M199.9,229.9c0-1.8-1.3-2.9-2.7-2.9s-2.7,1.1-2.7,2.9v3.8c0,0.4-0.4,0.8-0.8,0.8s-0.8-0.4-0.8-0.8V230c0-2.5,2-4.4,4.4-4.4
		s4.4,1.9,4.4,4.4v3.7c0,0.4-0.4,0.8-0.8,0.8s-0.8-0.4-0.8-0.8L199.9,229.9L199.9,229.9z"/>
	<path d="M212.2,233.7c0,0.4-0.4,0.8-0.8,0.8s-0.8-0.4-0.8-0.8v-0.4c-0.6,0.7-1.5,1.3-2.9,1.3c-2.3,0-4.2-2-4.2-4.5s2-4.5,4.2-4.5
		c1.4,0,2.3,0.6,2.9,1.3v-4.6c0-0.5,0.4-0.8,0.8-0.8c0.4,0,0.8,0.4,0.8,0.8V233.7L212.2,233.7z M210.7,229.9c0-1.6-1.1-2.9-2.8-2.9
		s-2.9,1.4-2.9,3s1.2,3.1,2.9,3.1s2.8-1.3,2.8-3V229.9L210.7,229.9z"/>
	<path class="st1" d="M230.6,223v10.8c0,0.4-0.4,0.8-0.8,0.8s-0.8-0.4-0.8-0.8v-4.9h-7.1v4.9c0,0.4-0.4,0.8-0.8,0.8
		s-0.8-0.4-0.8-0.8V223c0-0.5,0.4-0.8,0.8-0.8s0.8,0.4,0.8,0.8v4.5h7.1V223c0-0.5,0.4-0.8,0.8-0.8S230.6,222.5,230.6,223z"/>
	<path class="st1" d="M234.4,230.7c0.2,1.5,1.4,2.4,2.9,2.4c0.9,0,1.7-0.4,2.1-0.6c0.1-0.1,0.2-0.1,0.4-0.1c0.4,0,0.7,0.3,0.7,0.7
		c0,0.3-0.2,0.6-0.4,0.6c-0.3,0.2-1.4,0.8-2.9,0.8c-2.6,0-4.5-1.9-4.5-4.5s2.1-4.5,4.5-4.5s4.2,2,4.2,4.1c0,0.5-0.4,1.1-1,1.1
		L234.4,230.7L234.4,230.7z M234.4,229.4h5.6c-0.1-1.2-1.3-2.4-2.8-2.4S234.5,228,234.4,229.4z"/>
	<path class="st1" d="M244.8,233.7c0,0.4-0.4,0.8-0.8,0.8s-0.8-0.4-0.8-0.8v-4.3c0-2.2,1.5-3.9,3.8-3.9c0.9,0,1.7,0.4,2.2,0.8
		c0.2,0.2,0.3,0.4,0.3,0.6c0,0.4-0.3,0.8-0.7,0.8c-0.2,0-0.4-0.1-0.5-0.2c-0.3-0.2-0.7-0.5-1.3-0.5c-1.2,0-2.1,0.9-2.1,2.2
		L244.8,233.7L244.8,233.7z"/>
	<path class="st1" d="M251.2,227.2c-0.4,0-0.8-0.3-0.8-0.7s0.3-0.7,0.8-0.7h5.2c0.6,0,0.9,0.5,0.9,0.9c0,0.3-0.1,0.5-0.3,0.7
		l-4.6,5.6h4.3c0.5,0,0.8,0.3,0.8,0.8s-0.3,0.7-0.8,0.7h-5.5c-0.5,0-0.9-0.4-0.9-0.9c0-0.3,0.1-0.4,0.3-0.7l4.6-5.5L251.2,227.2
		L251.2,227.2z"/>
</g>
</svg>
