<?xml version="1.0" encoding="utf-8"?>
<!-- Generator: Adobe Illustrator 27.1.1, SVG Export Plug-In . SVG Version: 6.00 Build 0)  -->
<svg version="1.1" id="Layer_1" xmlns="http://www.w3.org/2000/svg" xmlns:xlink="http://www.w3.org/1999/xlink" x="0px" y="0px"
	 viewBox="0 0 250 60" style="enable-background:new 0 0 250 60;" xml:space="preserve">
<style type="text/css">
	.st0{fill:#28AAE1;}
	.st1{fill:#EA1C67;}
</style>
<g>
	<g>
		<path class="st0" d="M3.4,21.6c0.4-2.4,1.4-3.8,2.3-4.5c0.6-0.4,1.3,0.2,1,0.8c-1.6,3.2-0.7,7.4,1.1,11.4
			C5.9,26.8,4.2,24.2,3.4,21.6z"/>
		<path class="st0" d="M27.6,39.5c-2.4-2.2-9.2-7.9-9.3-11.3c-0.1-3.4-6,0.7,0.1,8.5c0,0-18.6-7.8-15.3-21.2c0.2-0.8-1.1-1-1.4-0.3
			c-1.3,3.2-5.7,11.6,9.8,25.8C22,50.7,27,51.6,28,60C28,60,37.1,48.2,27.6,39.5L27.6,39.5z"/>
		<path class="st0" d="M6.4,21.6c0,2.3,0.7,4.9,1.8,7.4c-0.7-3-0.7-6,0.7-8.3c0.4-0.6-0.3-1.3-0.9-0.9C7.5,20.3,6.9,20.8,6.4,21.6z"
			/>
	</g>
	<path class="st1" d="M50.6,13.9c-5.7-3.7-14.1-3.1-23.7,1.5c-7-3.9-15.8-3.7-15.8-3.7C24.2,15.9,27,23.2,27,23.2
		c7-4.9,16.1-5.8,19.8-3.5c10,6.2-2.2,29.1-14.5,38c17.3-9.8,24-22.2,24.4-30.9C57,21.3,54.8,16.5,50.6,13.9z"/>
	<circle class="st1" cx="40.6" cy="6.6" r="6.6"/>
</g>
<g>
	<path d="M67.3,35h3.1c2.2,0,3.5,1.6,3.5,3.3s-1.3,3.3-3.5,3.3H68v2.9c0,0.4-0.3,0.7-0.7,0.7s-0.7-0.3-0.7-0.7v-8.9
		C66.7,35.3,67,35,67.3,35L67.3,35z M68,40.4h2.3c1.5,0,2.2-1,2.2-2.1s-0.7-2.1-2.2-2.1H68V40.4z"/>
	<path d="M76.5,39.1h-0.6c-0.3,0-0.6-0.3-0.6-0.6s0.3-0.6,0.6-0.6h0.6v-1.7c0-1,0.8-1.9,1.8-1.9h0.8c0.3,0,0.6,0.3,0.6,0.6
		s-0.3,0.6-0.6,0.6h-0.6c-0.4,0-0.7,0.3-0.7,0.7v1.7h1.4c0.3,0,0.6,0.3,0.6,0.6s-0.3,0.6-0.6,0.6h-1.4v5.4c0,0.4-0.3,0.7-0.7,0.7
		s-0.7-0.3-0.7-0.7V39.1z"/>
	<path d="M82.6,44.6c0,0.4-0.3,0.7-0.7,0.7s-0.7-0.3-0.7-0.7V35c0-0.4,0.3-0.7,0.7-0.7s0.7,0.3,0.7,0.7V44.6z"/>
	<path d="M85.7,42.1c0.2,1.2,1.2,2,2.4,2c0.8,0,1.4-0.3,1.8-0.5c0.1,0,0.2-0.1,0.3-0.1c0.3,0,0.6,0.3,0.6,0.6c0,0.3-0.2,0.5-0.3,0.5
		c-0.3,0.2-1.2,0.7-2.4,0.7c-2.2,0-3.8-1.6-3.8-3.8s1.7-3.7,3.7-3.7s3.6,1.7,3.6,3.4c0,0.5-0.4,0.9-0.8,0.9
		C90.9,42.1,85.7,42.1,85.7,42.1z M85.7,41h4.7c-0.1-1-1.1-2-2.3-2S85.9,39.8,85.7,41z"/>
	<path d="M95.9,48.4c-2.1,0-3.2-1.2-3.2-1.8c0-0.4,0.3-0.6,0.7-0.6c0.2,0,0.4,0.1,0.5,0.2c0.4,0.5,1.1,1,2,1c1.1,0,2-0.4,2-1
		c0-1-2.3-0.8-2.3-2c0-0.5,0.3-0.8,0.3-0.8s0,0-0.2,0c-1.5,0-2.9-1.2-2.9-2.9c0-1.6,1.3-2.9,2.9-2.9c0.7,0,1.4,0.3,1.9,0.7
		c0.3-0.4,0.8-0.7,1.4-0.7h0.2c0.3,0,0.6,0.3,0.6,0.6s-0.2,0.6-0.6,0.6H99c-0.4,0-0.6,0.3-0.6,0.6c0.1,0.3,0.2,0.7,0.2,1
		c0,0.8-0.4,1.5-0.7,1.8c-0.3,0.4-1,0.8-1,1.3c0,0.9,2.3,0.7,2.3,2.4C99.3,47.6,97.6,48.4,95.9,48.4L95.9,48.4z M95.7,42.3
		c0.9,0,1.7-0.8,1.7-1.7s-0.8-1.7-1.7-1.7S94,39.7,94,40.6S94.7,42.3,95.7,42.3z"/>
	<path d="M101.5,42.1c0.2,1.2,1.2,2,2.4,2c0.8,0,1.4-0.3,1.8-0.5c0.1,0,0.2-0.1,0.3-0.1c0.3,0,0.6,0.3,0.6,0.6
		c0,0.3-0.2,0.5-0.3,0.5c-0.3,0.2-1.2,0.7-2.4,0.7c-2.2,0-3.8-1.6-3.8-3.8s1.7-3.7,3.7-3.7s3.6,1.7,3.6,3.4c0,0.5-0.4,0.9-0.8,0.9
		C106.6,42.1,101.5,42.1,101.5,42.1z M101.5,41h4.7c-0.1-1-1.1-2-2.3-2S101.6,39.8,101.5,41z"/>
	<path d="M125.7,44.6c0,0.4-0.3,0.7-0.7,0.7s-0.7-0.3-0.7-0.7v-3.4c0-1.3-0.9-2.2-2-2.2s-2,0.8-2,2.2v3.4c0,0.4-0.3,0.7-0.7,0.7
		s-0.7-0.3-0.7-0.7v-3.4c0-1.4-0.9-2.2-2-2.2s-2,0.8-2,2.2v3.4c0,0.4-0.3,0.7-0.7,0.7s-0.7-0.3-0.7-0.7v-3.3c0-2.1,1.5-3.5,3.4-3.5
		c1,0,1.9,0.4,2.7,1.4c0.8-1,1.7-1.4,2.7-1.4c1.9,0,3.4,1.4,3.4,3.5L125.7,44.6L125.7,44.6z"/>
	<path d="M128.5,34.8c0.5,0,0.9,0.4,0.9,0.9s-0.4,0.9-0.9,0.9s-0.9-0.4-0.9-0.9S128,34.8,128.5,34.8z M129.2,44.6
		c0,0.4-0.3,0.7-0.7,0.7s-0.7-0.3-0.7-0.7v-6.1c0-0.4,0.3-0.7,0.7-0.7s0.7,0.3,0.7,0.7V44.6z"/>
	<path d="M134.3,45.1h-0.7c-1,0-1.8-0.8-1.8-1.8v-4.2h-0.6c-0.4,0-0.6-0.3-0.6-0.6c0-0.3,0.3-0.6,0.6-0.6h0.6v-1.2
		c0-0.4,0.3-0.7,0.7-0.7s0.7,0.3,0.7,0.7v1.2h1.3c0.3,0,0.6,0.3,0.6,0.6s-0.3,0.6-0.6,0.6h-1.3v4.2c0,0.3,0.3,0.6,0.6,0.6h0.6
		c0.4,0,0.6,0.3,0.6,0.6S134.6,45.1,134.3,45.1z"/>
	<path class="st0" d="M149.8,35.5v9c0,0.4-0.3,0.7-0.7,0.7s-0.7-0.3-0.7-0.7v-4.1h-6v4.1c0,0.4-0.3,0.7-0.7,0.7s-0.7-0.3-0.7-0.7v-9
		c0-0.4,0.3-0.7,0.7-0.7s0.7,0.3,0.7,0.7v3.7h6v-3.7c0-0.4,0.3-0.7,0.7-0.7S149.8,35.2,149.8,35.5z"/>
	<path class="st0" d="M159,44.6c0,0.4-0.3,0.7-0.7,0.7s-0.7-0.3-0.7-0.7v-0.4c-0.5,0.6-1.3,1.1-2.4,1.1c-1.9,0-3.6-1.7-3.6-3.8
		s1.6-3.7,3.6-3.7c1.2,0,1.9,0.5,2.4,1.1v-0.4c0-0.4,0.4-0.7,0.7-0.7c0.4,0,0.7,0.3,0.7,0.7V44.6L159,44.6z M157.7,41.4
		c0-1.4-1-2.4-2.4-2.4s-2.5,1.2-2.5,2.5s1,2.6,2.5,2.6s2.4-1.1,2.4-2.5V41.4L157.7,41.4z"/>
	<path class="st0" d="M167,41.3c0-1.5-1.1-2.4-2.3-2.4s-2.3,0.9-2.3,2.4v3.2c0,0.4-0.3,0.7-0.7,0.7s-0.7-0.3-0.7-0.7v-3.1
		c0-2.1,1.6-3.7,3.7-3.7s3.7,1.6,3.7,3.7v3.1c0,0.4-0.3,0.7-0.7,0.7s-0.7-0.3-0.7-0.7L167,41.3L167,41.3z"/>
	<path class="st0" d="M177.4,44.6c0,0.4-0.3,0.7-0.7,0.7s-0.7-0.3-0.7-0.7v-0.4c-0.5,0.6-1.3,1.1-2.4,1.1c-1.9,0-3.6-1.7-3.6-3.8
		s1.6-3.7,3.6-3.7c1.2,0,1.9,0.5,2.4,1.1V35c0-0.4,0.4-0.7,0.7-0.7c0.4,0,0.7,0.3,0.7,0.7C177.4,35,177.4,44.6,177.4,44.6z
		 M176.1,41.4c0-1.4-1-2.4-2.4-2.4s-2.4,1.2-2.4,2.5s1,2.6,2.4,2.6s2.4-1.1,2.4-2.5V41.4L176.1,41.4z"/>
	<path d="M184.6,41.6c0,1.5,1.1,2.4,2.3,2.4s2.3-0.9,2.3-2.4v-3.2c0-0.4,0.3-0.7,0.7-0.7s0.7,0.3,0.7,0.7v3.1c0,2.1-1.6,3.7-3.7,3.7
		s-3.7-1.6-3.7-3.7v-3.1c0-0.4,0.3-0.7,0.7-0.7s0.7,0.3,0.7,0.7L184.6,41.6L184.6,41.6z"/>
	<path d="M198.3,41.3c0-1.5-1.1-2.4-2.3-2.4s-2.3,0.9-2.3,2.4v3.2c0,0.4-0.3,0.7-0.7,0.7s-0.7-0.3-0.7-0.7v-3.1
		c0-2.1,1.6-3.7,3.7-3.7s3.7,1.6,3.7,3.7v3.1c0,0.4-0.3,0.7-0.7,0.7s-0.7-0.3-0.7-0.7L198.3,41.3L198.3,41.3z"/>
	<path d="M208.7,44.6c0,0.4-0.3,0.7-0.7,0.7s-0.7-0.3-0.7-0.7v-0.4c-0.5,0.6-1.3,1.1-2.4,1.1c-1.9,0-3.6-1.7-3.6-3.8
		s1.6-3.7,3.6-3.7c1.2,0,1.9,0.5,2.4,1.1V35c0-0.4,0.4-0.7,0.7-0.7c0.4,0,0.7,0.3,0.7,0.7C208.7,35,208.7,44.6,208.7,44.6z
		 M207.4,41.4c0-1.4-1-2.4-2.4-2.4s-2.5,1.2-2.5,2.5s1,2.6,2.5,2.6s2.4-1.1,2.4-2.5V41.4L207.4,41.4z"/>
	<path class="st1" d="M224.2,35.5v9c0,0.4-0.3,0.7-0.7,0.7s-0.7-0.3-0.7-0.7v-4.1h-6v4.1c0,0.4-0.3,0.7-0.7,0.7s-0.7-0.3-0.7-0.7v-9
		c0-0.4,0.3-0.7,0.7-0.7s0.7,0.3,0.7,0.7v3.7h6v-3.7c0-0.4,0.3-0.7,0.7-0.7S224.2,35.2,224.2,35.5z"/>
	<path class="st1" d="M227.3,42.1c0.2,1.2,1.2,2,2.4,2c0.8,0,1.4-0.3,1.8-0.5c0.1,0,0.2-0.1,0.4-0.1c0.4,0,0.6,0.3,0.6,0.6
		c0,0.3-0.2,0.5-0.3,0.5c-0.3,0.2-1.2,0.7-2.4,0.7c-2.2,0-3.8-1.6-3.8-3.8s1.7-3.7,3.7-3.7s3.6,1.7,3.6,3.4c0,0.5-0.4,0.9-0.8,0.9
		C232.4,42.1,227.3,42.1,227.3,42.1z M227.3,41h4.7c-0.1-1-1.1-2-2.3-2S227.4,39.8,227.3,41z"/>
	<path class="st1" d="M236.1,44.6c0,0.4-0.3,0.7-0.7,0.7s-0.7-0.3-0.7-0.7V41c0-1.9,1.3-3.2,3.2-3.2c0.8,0,1.5,0.3,1.8,0.6
		c0.2,0.2,0.3,0.3,0.3,0.5c0,0.3-0.3,0.6-0.6,0.6c-0.2,0-0.3,0-0.4-0.1c-0.2-0.2-0.6-0.4-1.1-0.4c-1,0-1.7,0.8-1.7,1.8V44.6
		L236.1,44.6z"/>
	<path class="st1" d="M241.4,39.1c-0.4,0-0.6-0.2-0.6-0.6s0.3-0.6,0.6-0.6h4.4c0.5,0,0.7,0.4,0.7,0.7c0,0.3-0.1,0.4-0.3,0.6
		l-3.9,4.7h3.6c0.4,0,0.7,0.3,0.7,0.6s-0.3,0.6-0.7,0.6h-4.6c-0.4,0-0.7-0.3-0.7-0.7c0-0.2,0.1-0.4,0.3-0.6l3.9-4.7L241.4,39.1
		L241.4,39.1z"/>
</g>
<g>
	<path d="M70.3,13.2h1.9l3.6,10.1h-2l-0.6-1.8h-3.9l-0.6,1.8h-2L70.3,13.2L70.3,13.2z M69.9,19.8h2.7l-1.3-3.9L69.9,19.8L69.9,19.8z
		"/>
	<path d="M76.5,15.3h1.9v0.9c0.5-0.7,1.3-1.1,2.3-1.1c1.3,0,2.2,0.5,2.6,1.4c0.6-0.9,1.5-1.4,2.7-1.4c2.2,0,3.3,1.3,3.3,3.4v4.9
		h-1.9v-4.7c0-1.2-0.6-1.9-1.8-1.9c-1,0-1.8,0.7-1.8,2.1v4.5h-1.9v-4.8c0-1.2-0.6-1.9-1.7-1.9c-1.1,0-1.8,0.7-1.8,2.2v4.5h-1.9
		L76.5,15.3L76.5,15.3z"/>
	<path d="M92.2,22.3v1h-1.9V13.1h1.9v3.2c0.6-0.7,1.5-1.2,2.6-1.2c2,0,4,1.5,4,4.2s-2,4.2-4,4.2C93.7,23.5,92.8,23.1,92.2,22.3
		L92.2,22.3z M97,19.3c0-1.4-1.1-2.5-2.4-2.5s-2.4,1.1-2.4,2.5s1,2.5,2.4,2.5S97,20.7,97,19.3z"/>
	<path d="M100.5,21.3c0.7,0,1.1,0.5,1.1,1.1s-0.4,1.1-1.1,1.1s-1.1-0.5-1.1-1.1S99.8,21.3,100.5,21.3z"/>
	<path d="M105.9,13.2h3.5c2.1,0,3.7,1.6,3.7,3.6s-1.6,3.6-3.7,3.6h-1.6v2.9h-1.9L105.9,13.2L105.9,13.2z M107.8,15v3.7h1.4
		c1.1,0,1.9-0.8,1.9-1.9s-0.8-1.9-1.9-1.9C109.2,15,107.8,15,107.8,15z"/>
	<path d="M113.7,15.3h1.4c0-2.4,0.9-3.3,3.4-3.3h0.2v1.7c-1.5,0-1.7,0.4-1.7,1.5h1.7v1.7H117v6.4h-1.9v-6.4h-1.4V15.3L113.7,15.3z"
		/>
	<path d="M119.4,13.1h1.9v10.3h-1.9C119.4,23.4,119.4,13.1,119.4,13.1z"/>
	<path d="M122.1,19.3c0-2.4,1.8-4.2,4.2-4.2s4.2,1.8,4.2,4.2V20h-6.6c0.3,1.1,1.2,1.9,2.5,1.9c1.1,0,1.9-0.6,2.2-1.4l1.5,0.9
		c-0.7,1.3-2,2.2-3.8,2.2C123.9,23.5,122.1,21.7,122.1,19.3z M124,18.4h4.6c-0.3-1.1-1.1-1.7-2.3-1.7S124.3,17.4,124,18.4z"/>
	<path d="M137.7,22.3c-0.6,0.8-1.6,1.2-2.6,1.2c-2,0-4-1.5-4-4.2s2-4.2,4-4.2c1.1,0,2,0.5,2.6,1.2v-1h1.9v7.9c0,2.3-1.5,4.1-4.2,4.1
		c-2.1,0-3.4-1-4.2-2.3l1.7-1c0.6,1.1,1.2,1.6,2.5,1.6c1.4,0,2.3-1.1,2.3-2.4V22.3L137.7,22.3z M137.8,19.3c0-1.4-1-2.5-2.4-2.5
		s-2.5,1.1-2.5,2.5s1.1,2.5,2.5,2.5S137.8,20.7,137.8,19.3z"/>
	<path d="M140.4,19.3c0-2.4,1.9-4.2,4.2-4.2s4.2,1.8,4.2,4.2V20h-6.6c0.3,1.1,1.2,1.9,2.5,1.9c1.1,0,1.9-0.6,2.2-1.4l1.5,0.9
		c-0.7,1.3-2,2.2-3.8,2.2C142.2,23.5,140.4,21.7,140.4,19.3z M142.3,18.4h4.6c-0.3-1.1-1.1-1.7-2.3-1.7S142.6,17.4,142.3,18.4z"/>
	<path d="M149.4,19.3c0-2.7,2-4.2,4-4.2c1.1,0,2,0.4,2.6,1.1v-3.1h1.9v10.3H156v-1c-0.6,0.8-1.6,1.2-2.6,1.2
		C151.4,23.6,149.4,22,149.4,19.3z M156.1,19.3c0-1.4-1-2.5-2.4-2.5s-2.5,1.1-2.5,2.5s1.1,2.5,2.5,2.5S156.1,20.7,156.1,19.3z"/>
	<path d="M160,12.1c0.7,0,1.2,0.5,1.2,1.2s-0.4,1.2-1.2,1.2s-1.2-0.5-1.2-1.2S159.3,12.1,160,12.1z M159,15.3h1.9v8.1H159
		C159,23.4,159,15.3,159,15.3z"/>
	<path d="M161.7,19.3c0-2.4,1.9-4.2,4.2-4.2s4.2,1.8,4.2,4.2V20h-6.6c0.3,1.1,1.2,1.9,2.5,1.9c1.1,0,1.9-0.6,2.2-1.4l1.5,0.9
		c-0.7,1.3-2,2.2-3.8,2.2C163.5,23.5,161.7,21.7,161.7,19.3z M163.6,18.4h4.6c-0.3-1.1-1.1-1.7-2.3-1.7S163.9,17.4,163.6,18.4z"/>
	<path d="M171,15.3h1.9v1c0.5-0.7,1.4-1.2,2.4-1.2c2,0,3.2,1.3,3.2,3.5v4.8h-1.9v-4.6c0-1.3-0.6-2-1.8-2c-1.1,0-1.9,0.8-1.9,2.2v4.5
		H171L171,15.3L171,15.3z"/>
	<path d="M179,21.6l1.7-0.8c0.4,0.8,1.1,1.2,2,1.2s1.4-0.4,1.4-1c0-0.6-0.9-0.7-1.9-0.9c-1.4-0.3-2.9-0.7-2.9-2.4
		c0-1.3,1.3-2.5,3.2-2.5c1.6,0,2.7,0.6,3.3,1.7l-1.6,0.8c-0.3-0.6-0.9-0.9-1.7-0.9c-0.9,0-1.3,0.4-1.3,0.9c0,0.5,0.6,0.7,1.9,0.9
		c1.3,0.3,2.9,0.7,2.9,2.4c0,1.1-1,2.6-3.3,2.6C180.8,23.6,179.7,22.9,179,21.6L179,21.6z"/>
	<path d="M186.3,15.3h1.4V14l1.9-1.3v2.5h1.6v1.7h-1.6v3c0,1.4,0.2,1.6,1.6,1.6v1.8H191c-2.5,0-3.3-0.8-3.3-3.4v-3h-1.4V15.3z"/>
	<path d="M195.3,18.3c0-2.9,2.2-5.2,5.2-5.2c2.1,0,3.8,1.1,4.6,2.6l-1.7,1c-0.6-1.2-1.6-1.8-2.9-1.8c-1.9,0-3.3,1.5-3.3,3.4
		s1.4,3.4,3.4,3.4c1.5,0,2.6-0.9,2.9-2.2h-3.2v-1.8h5.3v0.8c0,2.7-1.9,5.1-5,5.1S195.3,21.1,195.3,18.3L195.3,18.3z"/>
	<path d="M206.4,15.3h1.9v1.2c0.4-0.8,1.1-1.2,2.1-1.2c0.6,0,1.1,0.1,1.4,0.4l-0.7,1.8c-0.3-0.2-0.6-0.3-1.1-0.3
		c-1.1,0-1.7,0.6-1.7,2v4.3h-1.9C206.4,23.4,206.4,15.3,206.4,15.3z"/>
	<path d="M211.9,19.3c0-2.7,2-4.2,4-4.2c1.1,0,2,0.4,2.6,1.1v-1h1.9v8.1h-1.9v-1c-0.6,0.8-1.6,1.2-2.6,1.2
		C213.9,23.6,211.9,22,211.9,19.3L211.9,19.3z M218.6,19.3c0-1.4-1-2.5-2.4-2.5s-2.5,1.1-2.5,2.5s1.1,2.5,2.5,2.5
		S218.6,20.7,218.6,19.3z"/>
	<path d="M221.1,15.3h1.4c0-2.4,0.9-3.3,3.4-3.3h0.2v1.7c-1.5,0-1.7,0.4-1.7,1.5h1.7v1.7h-1.7v6.4h-1.9v-6.4h-1.4V15.3L221.1,15.3z"
		/>
	<path d="M227.8,12.1c0.7,0,1.2,0.5,1.2,1.2s-0.4,1.2-1.2,1.2s-1.2-0.5-1.2-1.2S227.1,12.1,227.8,12.1z M226.9,15.3h1.9v8.1h-1.9
		C226.9,23.4,226.9,15.3,226.9,15.3z"/>
	<path d="M229.8,15.3h1.9v1c0.5-0.7,1.4-1.2,2.4-1.2c2,0,3.2,1.3,3.2,3.5v4.8h-1.9v-4.6c0-1.3-0.6-2-1.8-2c-1.1,0-1.9,0.8-1.9,2.2
		v4.5h-1.9L229.8,15.3L229.8,15.3z"/>
	<path d="M244.8,22.3c-0.6,0.8-1.6,1.2-2.6,1.2c-2,0-4-1.5-4-4.2s2-4.2,4-4.2c1.1,0,2,0.5,2.6,1.2v-1h1.9v7.9c0,2.3-1.5,4.1-4.2,4.1
		c-2.1,0-3.4-1-4.2-2.3l1.7-1c0.6,1.1,1.2,1.6,2.5,1.6c1.4,0,2.3-1.1,2.3-2.4L244.8,22.3L244.8,22.3z M244.9,19.3
		c0-1.4-1-2.5-2.4-2.5s-2.5,1.1-2.5,2.5s1.1,2.5,2.5,2.5S244.9,20.7,244.9,19.3z"/>
</g>
</svg>
