<?xml version="1.0" encoding="utf-8"?>
<!-- Generator: Adobe Illustrator 27.1.1, SVG Export Plug-In . SVG Version: 6.00 Build 0)  -->
<svg version="1.1" id="Layer_1" xmlns="http://www.w3.org/2000/svg" xmlns:xlink="http://www.w3.org/1999/xlink" x="0px" y="0px"
	 viewBox="0 0 300 300" style="enable-background:new 0 0 300 300;" xml:space="preserve">
<style type="text/css">
	.st0{fill:#28AAE1;}
	.st1{fill:#EA1C67;}
</style>
<g>
	<path d="M30.3,200.4h2.8l5.3,14.8h-2.9l-0.9-2.6h-5.8l-0.9,2.6H25L30.3,200.4L30.3,200.4z M29.7,210h3.9l-2-5.6
		C31.7,204.3,29.7,210,29.7,210z"/>
	<path d="M39.3,203.4h2.7v1.4c0.8-1,1.9-1.6,3.4-1.6c1.9,0,3.2,0.8,3.9,2.1c0.8-1.2,2.2-2.1,3.9-2.1c3.2,0,4.8,1.9,4.8,5v7.1h-2.8
		v-6.9c0-1.7-0.9-2.8-2.6-2.8c-1.5,0-2.6,1-2.6,3.1v6.6h-2.8v-7c0-1.7-0.8-2.7-2.5-2.7c-1.5,0-2.7,1.1-2.7,3.2v6.6h-2.7L39.3,203.4
		L39.3,203.4z"/>
	<path d="M62.3,213.7v1.5h-2.7v-15h2.7v4.6c0.8-1.1,2.2-1.8,3.8-1.8c3,0,5.8,2.2,5.8,6.2s-3,6.2-5.8,6.2
		C64.6,215.5,63.2,214.8,62.3,213.7L62.3,213.7z M69.3,209.3c0-2.1-1.6-3.7-3.6-3.7s-3.5,1.6-3.5,3.7s1.5,3.7,3.5,3.7
		S69.3,211.4,69.3,209.3z"/>
	<path d="M83.9,215.3h-2.7v-1.4c-0.8,1-1.9,1.6-3.4,1.6c-2.8,0-4.6-1.9-4.6-5.1v-7.1h2.8v6.8c0,1.9,0.8,3,2.5,3
		c1.5,0,2.6-1.1,2.6-3.2v-6.5h2.7L83.9,215.3L83.9,215.3z"/>
	<path d="M85.4,200.2h2.8v15h-2.8V200.2z"/>
	<path d="M89.4,209.3c0-3.9,2.9-6.2,5.9-6.2c1.6,0,2.9,0.6,3.8,1.7v-1.4h2.7v11.9h-2.7v-1.5c-0.9,1.1-2.3,1.8-3.9,1.8
		C92.4,215.5,89.4,213.2,89.4,209.3L89.4,209.3z M99.2,209.3c0-2-1.5-3.7-3.6-3.7s-3.6,1.6-3.6,3.7s1.6,3.7,3.6,3.7
		S99.2,211.3,99.2,209.3z"/>
	<path d="M103.5,203.4h2.7v1.5c0.8-1,2-1.7,3.6-1.7c3,0,4.7,1.9,4.7,5.1v7.1h-2.8v-6.8c0-1.9-0.9-3-2.7-3c-1.6,0-2.8,1.1-2.8,3.2
		v6.5h-2.7C103.5,215.3,103.5,203.4,103.5,203.4z"/>
	<path d="M115.1,203.4h2v-1.8l2.8-1.9v3.7h2.4v2.5h-2.4v4.4c0,2.1,0.3,2.4,2.4,2.4v2.6h-0.4c-3.7,0-4.8-1.2-4.8-5v-4.5h-2V203.4
		L115.1,203.4z"/>
	<path d="M122.9,209.4c0-3.5,2.7-6.2,6.2-6.2c3.5,0,6.1,2.6,6.1,6.1v1h-9.7c0.4,1.7,1.7,2.8,3.7,2.8c1.5,0,2.7-0.8,3.3-2.1l2.2,1.3
		c-1,1.9-2.9,3.2-5.5,3.2C125.4,215.5,122.9,212.8,122.9,209.4L122.9,209.4z M125.6,208h6.7c-0.4-1.6-1.6-2.4-3.3-2.4
		S126.1,206.5,125.6,208z"/>
	<path d="M136.4,203.4h2.7v1.8c0.6-1.2,1.6-1.8,3.1-1.8c0.9,0,1.5,0.2,2.1,0.5l-1,2.6c-0.4-0.3-0.9-0.5-1.6-0.5
		c-1.6,0-2.4,0.9-2.4,2.9v6.3h-2.7V203.4L136.4,203.4z"/>
	<path d="M150.1,200.4h5.1c3.1,0,5.3,2.4,5.3,5.3s-2.3,5.3-5.4,5.3h-2.3v4.2h-2.8L150.1,200.4L150.1,200.4z M152.9,203v5.5h2.1
		c1.6,0,2.8-1.2,2.8-2.7s-1.1-2.7-2.8-2.7H152.9z"/>
	<path d="M161.5,203.4h2v0c0-3.4,1.4-4.8,5-4.8h0.2v2.5c-2.2,0-2.4,0.5-2.4,2.2h2.4v2.5h-2.4v9.4h-2.8v-9.4h-2V203.4L161.5,203.4z"
		/>
	<path d="M169.9,200.2h2.8v15h-2.8V200.2z"/>
	<path d="M173.9,209.4c0-3.5,2.7-6.2,6.2-6.2s6.1,2.6,6.1,6.1v1h-9.7c0.4,1.7,1.7,2.8,3.7,2.8c1.5,0,2.7-0.8,3.3-2.1l2.2,1.3
		c-1,1.9-2.9,3.2-5.5,3.2C176.4,215.5,173.9,212.8,173.9,209.4L173.9,209.4z M176.6,208h6.7c-0.4-1.6-1.6-2.4-3.3-2.4
		S177.1,206.5,176.6,208z"/>
	<path d="M196.7,213.7c-0.9,1.1-2.3,1.8-3.9,1.8c-2.9,0-5.9-2.3-5.9-6.2s2.9-6.2,5.9-6.2c1.6,0,2.9,0.7,3.8,1.8v-1.5h2.7V215
		c0,3.3-2.1,6.1-6.1,6.1c-3.1,0-5-1.4-6.1-3.4l2.4-1.5c0.9,1.6,1.8,2.4,3.7,2.4c2.1,0,3.4-1.6,3.4-3.4L196.7,213.7L196.7,213.7z
		 M196.8,209.3c0-2-1.5-3.7-3.6-3.7s-3.6,1.6-3.6,3.7s1.6,3.7,3.6,3.7S196.8,211.3,196.8,209.3z"/>
	<path d="M200.7,209.4c0-3.5,2.7-6.2,6.2-6.2s6.1,2.6,6.1,6.1v1h-9.7c0.4,1.7,1.7,2.8,3.7,2.8c1.5,0,2.7-0.8,3.3-2.1l2.2,1.3
		c-1,1.9-2.9,3.2-5.5,3.2C203.2,215.5,200.7,212.8,200.7,209.4L200.7,209.4z M203.4,208h6.7c-0.4-1.6-1.6-2.4-3.3-2.4
		S203.9,206.5,203.4,208z"/>
	<path d="M213.8,209.3c0-3.9,2.9-6.2,5.9-6.2c1.5,0,2.9,0.6,3.8,1.6v-4.6h2.8v15h-2.7v-1.5c-0.9,1.1-2.3,1.8-3.9,1.8
		C216.8,215.5,213.8,213.2,213.8,209.3L213.8,209.3z M223.6,209.3c0-2-1.5-3.7-3.6-3.7s-3.6,1.6-3.6,3.7s1.6,3.7,3.6,3.7
		S223.6,211.3,223.6,209.3z"/>
	<path d="M229.3,198.8c1.1,0,1.7,0.7,1.7,1.7s-0.6,1.7-1.7,1.7s-1.7-0.7-1.7-1.7S228.2,198.8,229.3,198.8z M227.9,203.4h2.8v11.9
		h-2.8V203.4z"/>
	<path d="M231.8,209.4c0-3.5,2.7-6.2,6.2-6.2s6.1,2.6,6.1,6.1v1h-9.7c0.4,1.7,1.7,2.8,3.7,2.8c1.5,0,2.7-0.8,3.3-2.1l2.2,1.3
		c-1,1.9-2.9,3.2-5.5,3.2C234.4,215.5,231.8,212.8,231.8,209.4L231.8,209.4z M234.6,208h6.7c-0.4-1.6-1.6-2.4-3.3-2.4
		S235.1,206.5,234.6,208z"/>
	<path d="M245.3,203.4h2.7v1.5c0.8-1,2-1.7,3.6-1.7c3,0,4.7,1.9,4.7,5.1v7.1h-2.8v-6.8c0-1.9-0.9-3-2.7-3c-1.6,0-2.8,1.1-2.8,3.2
		v6.5h-2.7L245.3,203.4L245.3,203.4z"/>
	<path d="M257.1,212.6l2.5-1.2c0.6,1.1,1.6,1.7,2.9,1.7s2-0.6,2-1.4c0-0.9-1.3-1-2.8-1.4c-2-0.4-4.2-1.1-4.2-3.6
		c0-1.9,1.9-3.6,4.7-3.6c2.4,0,3.9,0.9,4.9,2.5l-2.3,1.2c-0.5-0.8-1.4-1.4-2.5-1.4c-1.3,0-1.9,0.6-1.9,1.3c0,0.8,0.9,1,2.7,1.4
		c2,0.4,4.2,1.1,4.2,3.6c0,1.7-1.5,3.9-4.9,3.9C259.7,215.5,258,214.5,257.1,212.6L257.1,212.6z"/>
	<path d="M267.8,203.4h2v-1.8l2.8-1.9v3.7h2.4v2.5h-2.4v4.4c0,2.1,0.3,2.4,2.4,2.4v2.6h-0.4c-3.7,0-4.8-1.2-4.8-5v-4.5h-2V203.4
		L267.8,203.4z"/>
</g>
<g>
	<path d="M120.7,233c0-3.2,2.4-5.7,5.8-5.7c2.2,0,4,1.1,5,2.9l-1.3,0.8c-0.7-1.4-2-2.2-3.7-2.2c-2.5,0-4.3,1.9-4.3,4.3
		s1.8,4.3,4.3,4.3c2.3,0,3.7-1.4,4-3.4h-4.2v-1.4h5.7v0.5c0,3-2.1,5.7-5.5,5.7S120.8,236.1,120.7,233L120.7,233z"/>
	<path d="M133.6,229.6h1.4v1.3c0.4-0.9,1.2-1.3,2.2-1.3c0.8,0,1.3,0.2,1.7,0.5l-0.6,1.4c-0.4-0.2-0.6-0.4-1.4-0.4
		c-1.2,0-2,0.7-2,2.5c0,0.1,0,1.4,0,2.6v2.4h-1.5L133.6,229.6L133.6,229.6z"/>
	<path d="M139.4,234.1c0-2.7,2-4.6,4.5-4.6c1.3,0,2.6,0.6,3.3,1.7v-1.5h1.4v8.9h-1.4V237c-0.4,0.5-0.8,1-1.4,1.2
		c-0.6,0.3-1.2,0.4-1.8,0.4C141.5,238.7,139.4,236.8,139.4,234.1L139.4,234.1z M147.4,234.1c0-1.8-1.4-3.3-3.2-3.3s-3.2,1.5-3.2,3.3
		s1.4,3.3,3.2,3.3S147.4,235.9,147.4,234.1z"/>
	<path d="M150.1,229.6h1.6v-0.1c0-2.7,0.8-3.4,3.4-3.4h0.1v1.4c-1.8,0-2.1,0.3-2.1,2.1v0.1h2.1v1.3h-2.1v7.6h-1.4v-7.6h-1.6V229.6
		L150.1,229.6z"/>
	<path d="M157.3,226.4c0.7,0,1.1,0.4,1.1,1s-0.4,1-1.1,1s-1-0.4-1-1S156.7,226.4,157.3,226.4z M156.6,229.6h1.5v8.9h-1.5V229.6z"/>
	<path d="M160,229.6h1.4v1.4c0.6-0.9,1.7-1.6,3-1.6c2.3,0,3.8,1.5,3.8,4v5.1h-1.5v-5c0-1.7-0.9-2.8-2.6-2.8c-1.6,0-2.7,1.2-2.7,2.9
		v4.9H160L160,229.6L160,229.6z"/>
	<path d="M169.8,234.1c0-2.7,2-4.6,4.5-4.6c1.3,0,2.6,0.6,3.3,1.7v-1.5h1.4v8.7c0,2.7-1.9,4.5-4.6,4.5c-2.2,0-3.5-0.9-4.3-2.4
		l1.3-0.8c0.6,1.1,1.4,1.8,3.1,1.8c1.9,0,3.1-1.3,3.1-3.1V237c-0.4,0.5-0.8,1-1.4,1.2c-0.6,0.3-1.2,0.4-1.8,0.4
		C171.8,238.7,169.8,236.8,169.8,234.1L169.8,234.1z M177.7,234.1c0-1.8-1.4-3.3-3.2-3.3s-3.2,1.5-3.2,3.3s1.4,3.3,3.2,3.3
		S177.7,235.9,177.7,234.1z"/>
</g>
<g>
	<g>
		<path class="st0" d="M97.5,102.7c0.8-5.1,2.9-7.9,4.9-9.5c1.2-0.9,2.8,0.4,2.1,1.7c-3.4,6.8-1.4,15.7,2.2,24.1
			C102.6,113.8,99.1,108.2,97.5,102.7z"/>
		<path class="st0" d="M148.6,140.6c-5.1-4.7-19.5-16.7-19.7-23.9s-12.6,1.4,0.1,18c0,0-39.3-16.5-32.4-44.9c0.4-1.6-2.3-2.1-3-0.6
			c-2.8,6.7-12,24.5,20.7,54.5c22.5,20.6,33,22.5,35.2,40.3C149.5,184,168.8,159.1,148.6,140.6L148.6,140.6z"/>
		<path class="st0" d="M103.9,102.8c0,4.9,1.6,10.4,3.9,15.7c-1.4-6.4-1.4-12.7,1.4-17.5c0.8-1.3-0.7-2.7-2-1.9
			C106.1,100,104.9,101.1,103.9,102.8z"/>
	</g>
	<path class="st1" d="M197.3,86.4c-12.1-7.8-29.8-6.6-50.1,3.1c-14.8-8.2-33.5-7.8-33.5-7.8c27.8,8.9,33.6,24.5,33.6,24.5
		c14.7-10.5,34.1-12.2,41.9-7.3c21.1,13.2-4.6,61.6-30.6,80.4c36.5-20.7,50.7-47,51.7-65.3C210.9,102.2,206.1,92.1,197.3,86.4
		L197.3,86.4z"/>
	<circle class="st1" cx="176.1" cy="71.2" r="14.1"/>
</g>
</svg>
