<?xml version="1.0" encoding="utf-8"?>
<!-- Generator: Adobe Illustrator 27.1.1, SVG Export Plug-In . SVG Version: 6.00 Build 0)  -->
<svg version="1.1" id="Layer_1" xmlns="http://www.w3.org/2000/svg" xmlns:xlink="http://www.w3.org/1999/xlink" x="0px" y="0px"
	 viewBox="0 0 250 60" style="enable-background:new 0 0 250 60;" xml:space="preserve">
<style type="text/css">
	.st0{fill:#28AAE1;}
	.st1{fill:#EA1C67;}
	.st2{fill:#333333;}
</style>
<g>
	<g>
		<path class="st0" d="M7.9,23c0.3-2,1.1-3.1,1.9-3.8c0.5-0.4,1.1,0.1,0.8,0.7c-1.3,2.7-0.6,6.2,0.9,9.5C9.9,27.3,8.5,25.1,7.9,23z"
			/>
		<path class="st0" d="M28,37.9c-2-1.8-7.7-6.6-7.8-9.4s-5,0.6,0,7.1c0,0-15.5-6.5-12.8-17.7c0.2-0.6-0.9-0.8-1.2-0.2
			c-1.1,2.6-4.7,9.7,8.1,21.5c8.9,8.1,13,8.9,13.9,15.9C28.4,55,36,45.2,28,37.9L28,37.9z"/>
		<path class="st0" d="M10.4,23c0,2,0.6,4.1,1.5,6.2c-0.6-2.5-0.6-5,0.6-6.9c0.3-0.5-0.3-1.1-0.8-0.7C11.3,21.9,10.8,22.4,10.4,23
			L10.4,23z"/>
	</g>
	<path class="st1" d="M47.2,16.5c-4.8-3.1-11.7-2.6-19.7,1.2c-5.8-3.2-13.2-3.1-13.2-3.1c10.9,3.5,13.2,9.6,13.2,9.6
		c5.8-4.1,13.4-4.8,16.5-2.9c8.3,5.2-1.8,24.3-12.1,31.7c14.4-8.2,20-18.5,20.4-25.8C52.5,22.8,50.7,18.8,47.2,16.5z"/>
	<circle class="st1" cx="38.8" cy="10.5" r="5.5"/>
</g>
<g>
	<g>
		<path class="st2" d="M58.4,37.8h3.2c2.3,0,3.7,1.6,3.7,3.5s-1.4,3.5-3.7,3.5h-2.5v3c0,0.4-0.3,0.7-0.7,0.7s-0.7-0.3-0.7-0.7v-9.2
			C57.7,38.1,58,37.8,58.4,37.8L58.4,37.8z M59.1,43.5h2.5c1.6,0,2.3-1.1,2.3-2.2s-0.8-2.2-2.3-2.2h-2.5V43.5z"/>
		<path class="st2" d="M67.9,42.1h-0.6c-0.4,0-0.6-0.3-0.6-0.7s0.3-0.6,0.6-0.6h0.6V39c0-1,0.8-2,1.9-2h0.9c0.4,0,0.6,0.3,0.6,0.7
			s-0.3,0.6-0.6,0.6h-0.6c-0.4,0-0.7,0.3-0.7,0.7v1.8h1.5c0.4,0,0.6,0.3,0.6,0.6s-0.3,0.7-0.6,0.7h-1.5v5.7c0,0.4-0.3,0.7-0.7,0.7
			s-0.7-0.3-0.7-0.7L67.9,42.1L67.9,42.1z"/>
		<path class="st2" d="M74.3,47.8c0,0.4-0.3,0.7-0.7,0.7s-0.7-0.3-0.7-0.7v-10c0-0.4,0.3-0.7,0.7-0.7s0.7,0.3,0.7,0.7V47.8z"/>
		<path class="st2" d="M77.6,45.2c0.2,1.3,1.3,2.1,2.6,2.1c0.8,0,1.5-0.3,1.9-0.6c0.1,0,0.2-0.1,0.4-0.1c0.4,0,0.6,0.3,0.6,0.6
			c0,0.3-0.2,0.5-0.3,0.6c-0.3,0.2-1.2,0.7-2.6,0.7c-2.3,0-4-1.7-4-3.9s1.8-3.9,3.9-3.9s3.7,1.8,3.7,3.6c0,0.5-0.4,0.9-0.8,0.9
			L77.6,45.2L77.6,45.2z M77.6,44h4.9c-0.1-1-1.1-2.1-2.4-2.1S77.7,42.8,77.6,44z"/>
		<path class="st2" d="M88.2,51.8c-2.2,0-3.3-1.3-3.3-1.8c0-0.4,0.3-0.6,0.7-0.6c0.3,0,0.4,0.1,0.5,0.2c0.4,0.5,1.1,1,2.1,1
			c1.2,0,2.1-0.4,2.1-1.1c0-1-2.4-0.8-2.4-2.1c0-0.5,0.3-0.8,0.3-0.8s-0.1,0-0.2,0c-1.5,0-3.1-1.2-3.1-3c0-1.6,1.4-3,3-3
			c0.7,0,1.4,0.3,2,0.7c0.3-0.4,0.8-0.7,1.4-0.7h0.2c0.3,0,0.6,0.3,0.6,0.6s-0.3,0.6-0.6,0.6h-0.1c-0.4,0-0.6,0.3-0.6,0.7
			c0.1,0.3,0.2,0.7,0.2,1.1c0,0.9-0.4,1.5-0.7,1.9c-0.3,0.4-1,0.9-1,1.3c0,0.9,2.4,0.7,2.4,2.5C91.7,50.9,90,51.8,88.2,51.8
			L88.2,51.8z M88,45.4c1,0,1.8-0.8,1.8-1.8S89,41.9,88,41.9s-1.8,0.8-1.8,1.8S87,45.4,88,45.4z"/>
		<path class="st2" d="M94.1,45.2c0.2,1.3,1.3,2.1,2.6,2.1c0.8,0,1.5-0.3,1.9-0.6c0.1,0,0.2-0.1,0.4-0.1c0.4,0,0.6,0.3,0.6,0.6
			c0,0.3-0.2,0.5-0.3,0.6c-0.3,0.2-1.2,0.7-2.6,0.7c-2.3,0-4-1.7-4-3.9s1.8-3.9,3.9-3.9s3.7,1.8,3.7,3.6c0,0.5-0.4,0.9-0.8,0.9
			L94.1,45.2L94.1,45.2z M94.1,44H99c-0.1-1-1.1-2.1-2.4-2.1S94.2,42.8,94.1,44z"/>
		<path class="st2" d="M119.3,47.8c0,0.4-0.3,0.7-0.7,0.7s-0.7-0.3-0.7-0.7v-3.6c0-1.4-0.9-2.3-2.1-2.3s-2.1,0.9-2.1,2.3v3.6
			c0,0.4-0.3,0.7-0.7,0.7s-0.7-0.3-0.7-0.7v-3.6c0-1.4-0.9-2.3-2.1-2.3s-2.1,0.9-2.1,2.3v3.6c0,0.4-0.3,0.7-0.7,0.7
			s-0.7-0.3-0.7-0.7v-3.4c0-2.2,1.6-3.7,3.6-3.7c1,0,2,0.4,2.8,1.5c0.8-1,1.8-1.5,2.8-1.5c2,0,3.5,1.5,3.5,3.7L119.3,47.8
			L119.3,47.8z"/>
		<path class="st2" d="M122.3,37.7c0.5,0,0.9,0.4,0.9,1s-0.4,1-0.9,1s-0.9-0.4-0.9-1S121.7,37.7,122.3,37.7z M123,47.8
			c0,0.4-0.3,0.7-0.7,0.7s-0.7-0.3-0.7-0.7v-6.4c0-0.4,0.3-0.7,0.7-0.7s0.7,0.3,0.7,0.7V47.8z"/>
		<path class="st2" d="M128.3,48.4h-0.8c-1.1,0-1.9-0.9-1.9-1.9v-4.4H125c-0.4,0-0.6-0.3-0.6-0.7c0-0.3,0.3-0.6,0.6-0.6h0.6v-1.3
			c0-0.4,0.3-0.7,0.7-0.7s0.7,0.3,0.7,0.7v1.3h1.4c0.4,0,0.6,0.3,0.6,0.6s-0.3,0.7-0.6,0.7h-1.4v4.4c0,0.4,0.3,0.6,0.6,0.6h0.6
			c0.4,0,0.6,0.3,0.6,0.7S128.6,48.4,128.3,48.4L128.3,48.4z"/>
		<path class="st0" d="M144.5,38.4v9.4c0,0.4-0.3,0.7-0.7,0.7s-0.7-0.3-0.7-0.7v-4.2h-6.3v4.2c0,0.4-0.3,0.7-0.7,0.7
			s-0.7-0.3-0.7-0.7v-9.4c0-0.4,0.3-0.7,0.7-0.7s0.7,0.3,0.7,0.7v3.9h6.3v-3.9c0-0.4,0.3-0.7,0.7-0.7S144.5,38,144.5,38.4z"/>
		<path class="st0" d="M154.1,47.8c0,0.4-0.3,0.7-0.7,0.7s-0.7-0.3-0.7-0.7v-0.4c-0.5,0.6-1.3,1.1-2.6,1.1c-2,0-3.7-1.7-3.7-3.9
			s1.7-3.9,3.7-3.9c1.2,0,2,0.5,2.6,1.1v-0.4c0-0.4,0.4-0.7,0.7-0.7c0.4,0,0.7,0.3,0.7,0.7V47.8L154.1,47.8z M152.8,44.5
			c0-1.4-1-2.5-2.5-2.5s-2.6,1.2-2.6,2.7s1.1,2.7,2.6,2.7s2.5-1.2,2.5-2.6V44.5L152.8,44.5z"/>
		<path class="st0" d="M162.5,44.4c0-1.5-1.1-2.5-2.4-2.5s-2.4,1-2.4,2.5v3.3c0,0.4-0.3,0.7-0.7,0.7s-0.7-0.3-0.7-0.7v-3.2
			c0-2.2,1.7-3.9,3.8-3.9s3.8,1.7,3.8,3.9v3.2c0,0.4-0.4,0.7-0.7,0.7s-0.7-0.3-0.7-0.7L162.5,44.4L162.5,44.4z"/>
		<path class="st0" d="M173.3,47.8c0,0.4-0.3,0.7-0.7,0.7s-0.7-0.3-0.7-0.7v-0.4c-0.5,0.6-1.3,1.1-2.6,1.1c-2,0-3.7-1.7-3.7-3.9
			s1.7-3.9,3.7-3.9c1.2,0,2,0.5,2.6,1.1v-4c0-0.4,0.4-0.7,0.7-0.7c0.4,0,0.7,0.3,0.7,0.7V47.8L173.3,47.8z M171.9,44.5
			c0-1.4-1-2.5-2.5-2.5s-2.6,1.2-2.6,2.7s1.1,2.7,2.6,2.7s2.5-1.2,2.5-2.6V44.5L171.9,44.5z"/>
		<path class="st2" d="M180.9,44.7c0,1.5,1.1,2.5,2.4,2.5s2.4-1,2.4-2.5v-3.3c0-0.4,0.3-0.7,0.7-0.7s0.7,0.3,0.7,0.7v3.2
			c0,2.2-1.7,3.9-3.8,3.9s-3.8-1.7-3.8-3.9v-3.2c0-0.4,0.4-0.7,0.7-0.7s0.7,0.3,0.7,0.7L180.9,44.7L180.9,44.7z"/>
		<path class="st2" d="M195.2,44.4c0-1.5-1.1-2.5-2.4-2.5s-2.4,1-2.4,2.5v3.3c0,0.4-0.3,0.7-0.7,0.7s-0.7-0.3-0.7-0.7v-3.2
			c0-2.2,1.7-3.9,3.8-3.9s3.8,1.7,3.8,3.9v3.2c0,0.4-0.4,0.7-0.7,0.7s-0.7-0.3-0.7-0.7L195.2,44.4L195.2,44.4z"/>
		<path class="st2" d="M206,47.8c0,0.4-0.3,0.7-0.7,0.7s-0.7-0.3-0.7-0.7v-0.4c-0.5,0.6-1.3,1.1-2.6,1.1c-2,0-3.7-1.7-3.7-3.9
			s1.7-3.9,3.7-3.9c1.2,0,2,0.5,2.6,1.1v-4c0-0.4,0.4-0.7,0.7-0.7c0.4,0,0.7,0.3,0.7,0.7V47.8L206,47.8z M204.7,44.5
			c0-1.4-1-2.5-2.5-2.5s-2.6,1.2-2.6,2.7s1.1,2.7,2.6,2.7s2.5-1.2,2.5-2.6V44.5L204.7,44.5z"/>
		<path class="st1" d="M222.2,38.4v9.4c0,0.4-0.3,0.7-0.7,0.7s-0.7-0.3-0.7-0.7v-4.2h-6.3v4.2c0,0.4-0.3,0.7-0.7,0.7
			s-0.7-0.3-0.7-0.7v-9.4c0-0.4,0.3-0.7,0.7-0.7s0.7,0.3,0.7,0.7v3.9h6.3v-3.9c0-0.4,0.3-0.7,0.7-0.7S222.2,38,222.2,38.4z"/>
		<path class="st1" d="M225.5,45.2c0.2,1.3,1.3,2.1,2.6,2.1c0.8,0,1.5-0.3,1.9-0.6c0.1,0,0.2-0.1,0.4-0.1c0.4,0,0.6,0.3,0.6,0.6
			c0,0.3-0.2,0.5-0.3,0.6c-0.3,0.2-1.2,0.7-2.6,0.7c-2.3,0-4-1.7-4-3.9s1.8-3.9,3.9-3.9s3.7,1.8,3.7,3.6c0,0.5-0.4,0.9-0.8,0.9
			L225.5,45.2L225.5,45.2z M225.5,44h4.9c-0.1-1-1.1-2.1-2.4-2.1S225.6,42.8,225.5,44L225.5,44z"/>
		<path class="st1" d="M234.6,47.8c0,0.4-0.3,0.7-0.7,0.7s-0.7-0.3-0.7-0.7V44c0-2,1.3-3.4,3.3-3.4c0.8,0,1.5,0.3,1.9,0.7
			c0.2,0.2,0.3,0.4,0.3,0.5c0,0.3-0.3,0.7-0.6,0.7c-0.2,0-0.3,0-0.5-0.2c-0.3-0.2-0.6-0.5-1.2-0.5c-1.1,0-1.8,0.8-1.8,1.9
			L234.6,47.8L234.6,47.8z"/>
		<path class="st1" d="M240.2,42.1c-0.4,0-0.7-0.3-0.7-0.7s0.3-0.6,0.7-0.6h4.6c0.5,0,0.8,0.4,0.8,0.8c0,0.3-0.1,0.4-0.3,0.6
			l-4.1,4.9h3.8c0.4,0,0.7,0.3,0.7,0.7s-0.3,0.6-0.7,0.6h-4.9c-0.4,0-0.8-0.3-0.8-0.8c0-0.2,0.1-0.4,0.3-0.6l4-4.9
			C243.7,42.1,240.2,42.1,240.2,42.1z"/>
	</g>
	<g>
		<path class="st2" d="M61.4,15.1h2l3.8,10.6h-2.1l-0.7-1.9h-4.1l-0.7,1.9h-2.1L61.4,15.1L61.4,15.1z M61.1,21.9h2.8l-1.4-4
			L61.1,21.9z"/>
		<path class="st2" d="M67.9,17.2h1.9v1c0.5-0.7,1.4-1.2,2.4-1.2c1.3,0,2.2,0.5,2.8,1.5c0.6-0.9,1.6-1.5,2.8-1.5
			c2.3,0,3.4,1.3,3.4,3.5v5.1h-2v-4.9c0-1.2-0.6-2-1.8-2c-1.1,0-1.9,0.7-1.9,2.2v4.7h-2v-5c0-1.2-0.6-2-1.8-2
			c-1.1,0-1.9,0.8-1.9,2.3v4.7h-2L67.9,17.2L67.9,17.2z"/>
		<path class="st2" d="M84.3,24.6v1.1h-1.9V14.9h2v3.3c0.6-0.8,1.6-1.2,2.7-1.2c2.1,0,4.2,1.6,4.2,4.4s-2.1,4.4-4.2,4.4
			C85.9,25.8,84.9,25.4,84.3,24.6L84.3,24.6z M89.3,21.4c0-1.5-1.1-2.6-2.6-2.6s-2.5,1.2-2.5,2.6s1.1,2.6,2.5,2.6
			S89.3,22.9,89.3,21.4z"/>
		<path class="st2" d="M93,23.5c0.7,0,1.2,0.5,1.2,1.2s-0.4,1.2-1.2,1.2s-1.2-0.5-1.2-1.2S92.3,23.5,93,23.5z"/>
		<path class="st2" d="M98.6,15.1h3.6c2.2,0,3.8,1.7,3.8,3.8s-1.6,3.8-3.8,3.8h-1.6v3h-2L98.6,15.1L98.6,15.1z M100.6,16.9v3.9h1.5
			c1.2,0,2-0.9,2-2s-0.8-1.9-2-1.9H100.6z"/>
		<path class="st2" d="M106.8,17.2h1.4c0-2.4,1-3.4,3.6-3.4h0.2v1.8c-1.6,0-1.7,0.4-1.7,1.6h1.7v1.8h-1.7v6.7h-2v-6.7h-1.4
			L106.8,17.2L106.8,17.2z"/>
		<path class="st2" d="M112.8,14.9h2v10.7h-2C112.8,25.7,112.8,15,112.8,14.9z"/>
		<path class="st2" d="M115.6,21.5c0-2.5,1.9-4.4,4.4-4.4s4.4,1.9,4.4,4.4v0.7h-6.9c0.3,1.2,1.2,2,2.6,2c1.1,0,1.9-0.6,2.3-1.5
			l1.6,0.9c-0.7,1.4-2,2.3-4,2.3C117.4,25.8,115.6,23.9,115.6,21.5z M117.6,20.5h4.8c-0.3-1.1-1.2-1.7-2.4-1.7
			S117.9,19.5,117.6,20.5L117.6,20.5z"/>
		<path class="st2" d="M131.9,24.5c-0.6,0.8-1.6,1.3-2.8,1.3c-2.1,0-4.2-1.6-4.2-4.4s2.1-4.4,4.2-4.4c1.1,0,2.1,0.5,2.7,1.3v-1.1h2
			v8.3c0,2.4-1.5,4.3-4.4,4.3c-2.2,0-3.6-1-4.3-2.4l1.7-1.1c0.6,1.1,1.3,1.7,2.6,1.7c1.5,0,2.4-1.2,2.4-2.5V24.5L131.9,24.5z
			 M132,21.4c0-1.5-1.1-2.6-2.5-2.6s-2.6,1.1-2.6,2.6s1.1,2.6,2.6,2.6S132,22.9,132,21.4z"/>
		<path class="st2" d="M134.7,21.5c0-2.5,1.9-4.4,4.4-4.4s4.4,1.9,4.4,4.4v0.7h-6.9c0.3,1.2,1.2,2,2.6,2c1.1,0,1.9-0.6,2.4-1.5
			l1.6,0.9c-0.7,1.4-2,2.3-4,2.3C136.5,25.8,134.7,23.9,134.7,21.5L134.7,21.5z M136.7,20.5h4.8c-0.3-1.1-1.2-1.7-2.4-1.7
			S137,19.5,136.7,20.5L136.7,20.5z"/>
		<path class="st2" d="M144.1,21.4c0-2.8,2.1-4.4,4.2-4.4c1.1,0,2.1,0.4,2.7,1.2v-3.2h2v10.7h-2v-1.1c-0.6,0.8-1.6,1.3-2.8,1.3
			C146.2,25.9,144.1,24.2,144.1,21.4L144.1,21.4z M151.1,21.4c0-1.5-1.1-2.6-2.5-2.6s-2.6,1.1-2.6,2.6s1.1,2.6,2.6,2.6
			S151.1,22.9,151.1,21.4z"/>
		<path class="st2" d="M155.1,13.9c0.8,0,1.2,0.5,1.2,1.2s-0.5,1.2-1.2,1.2s-1.2-0.5-1.2-1.2S154.4,13.9,155.1,13.9z M154.1,17.2h2
			v8.5h-2V17.2z"/>
		<path class="st2" d="M157,21.5c0-2.5,1.9-4.4,4.4-4.4s4.4,1.9,4.4,4.4v0.7h-6.9c0.3,1.2,1.2,2,2.6,2c1.1,0,1.9-0.6,2.4-1.5
			l1.6,0.9c-0.7,1.4-2,2.3-4,2.3C158.8,25.8,157,23.9,157,21.5L157,21.5z M158.9,20.5h4.8c-0.3-1.1-1.2-1.7-2.4-1.7
			S159.3,19.5,158.9,20.5L158.9,20.5z"/>
		<path class="st2" d="M166.6,17.2h1.9v1c0.6-0.7,1.4-1.2,2.5-1.2c2.1,0,3.4,1.3,3.4,3.6v5h-2v-4.8c0-1.3-0.6-2.1-1.9-2.1
			c-1.1,0-2,0.8-2,2.3v4.6h-2L166.6,17.2L166.6,17.2z"/>
		<path class="st2" d="M175,23.8l1.8-0.9c0.4,0.8,1.1,1.2,2,1.2s1.4-0.5,1.4-1c0-0.6-0.9-0.7-2-1c-1.4-0.3-3-0.8-3-2.5
			c0-1.4,1.3-2.6,3.3-2.6c1.7,0,2.8,0.7,3.5,1.8l-1.7,0.8c-0.4-0.6-1-1-1.8-1c-0.9,0-1.4,0.4-1.4,0.9c0,0.6,0.7,0.7,1.9,1
			c1.4,0.3,3,0.8,3,2.5c0,1.2-1.1,2.8-3.5,2.8C176.8,25.8,175.7,25.1,175,23.8L175,23.8z"/>
		<path class="st2" d="M182.6,17.2h1.4v-1.3l2-1.4v2.6h1.7v1.8h-1.7v3.2c0,1.5,0.2,1.7,1.7,1.7v1.8h-0.3c-2.6,0-3.4-0.8-3.4-3.5
			v-3.2h-1.4V17.2z"/>
		<path class="st2" d="M192,20.4c0-3,2.3-5.4,5.4-5.4c2.2,0,3.9,1.1,4.8,2.7l-1.7,1c-0.7-1.2-1.7-1.8-3.1-1.8c-2,0-3.5,1.6-3.5,3.5
			s1.5,3.5,3.5,3.5c1.6,0,2.7-0.9,3.1-2.3h-3.4v-1.9h5.5v0.8c0,2.9-2,5.3-5.2,5.3S192,23.3,192,20.4L192,20.4z"/>
		<path class="st2" d="M203.6,17.2h1.9v1.3c0.4-0.8,1.1-1.3,2.2-1.3c0.6,0,1.1,0.1,1.5,0.4l-0.7,1.9c-0.3-0.2-0.6-0.3-1.2-0.3
			c-1.1,0-1.7,0.6-1.7,2.1v4.5h-2L203.6,17.2L203.6,17.2z"/>
		<path class="st2" d="M209.3,21.4c0-2.8,2.1-4.4,4.2-4.4c1.1,0,2.1,0.5,2.7,1.2v-1h2v8.5h-2v-1.1c-0.6,0.8-1.6,1.3-2.8,1.3
			C211.5,25.9,209.3,24.2,209.3,21.4L209.3,21.4z M216.4,21.4c0-1.5-1.1-2.6-2.5-2.6s-2.6,1.1-2.6,2.6s1.1,2.6,2.6,2.6
			S216.4,22.9,216.4,21.4z"/>
		<path class="st2" d="M219,17.2h1.4c0-2.4,1-3.4,3.6-3.4h0.2v1.8c-1.6,0-1.7,0.4-1.7,1.6h1.7v1.8h-1.7v6.7h-2v-6.7H219L219,17.2
			L219,17.2z"/>
		<path class="st2" d="M226,13.9c0.8,0,1.2,0.5,1.2,1.2s-0.5,1.2-1.2,1.2s-1.2-0.5-1.2-1.2S225.2,13.9,226,13.9z M225,17.2h2v8.5h-2
			V17.2z"/>
		<path class="st2" d="M228.1,17.2h1.9v1c0.6-0.7,1.4-1.2,2.5-1.2c2.1,0,3.4,1.3,3.4,3.6v5h-2v-4.8c0-1.3-0.6-2.1-1.9-2.1
			c-1.1,0-2,0.8-2,2.3v4.6h-2L228.1,17.2L228.1,17.2z"/>
		<path class="st2" d="M243.7,24.5c-0.6,0.8-1.6,1.3-2.8,1.3c-2,0-4.2-1.6-4.2-4.4s2.1-4.4,4.2-4.4c1.1,0,2.1,0.5,2.7,1.3v-1.1h2
			v8.3c0,2.4-1.5,4.3-4.4,4.3c-2.2,0-3.6-1-4.4-2.4l1.7-1.1c0.6,1.1,1.3,1.7,2.6,1.7c1.5,0,2.4-1.2,2.4-2.5V24.5L243.7,24.5z
			 M243.8,21.4c0-1.5-1.1-2.6-2.5-2.6s-2.6,1.1-2.6,2.6s1.1,2.6,2.6,2.6S243.8,22.9,243.8,21.4z"/>
	</g>
</g>
</svg>
