<?xml version="1.0" encoding="utf-8"?>
<!-- Generator: Adobe Illustrator 27.1.1, SVG Export Plug-In . SVG Version: 6.00 Build 0)  -->
<svg version="1.1" id="Layer_1" xmlns="http://www.w3.org/2000/svg" xmlns:xlink="http://www.w3.org/1999/xlink" x="0px" y="0px"
	 viewBox="0 0 270 60" style="enable-background:new 0 0 270 60;" xml:space="preserve">
<style type="text/css">
	.st0{fill:#28AAE1;}
	.st1{fill:#EA1C67;}
	.st2{fill:#333333;}
</style>
<g>
	<g>
		<path class="st0" d="M3.4,21.6c0.4-2.4,1.4-3.8,2.3-4.5c0.6-0.4,1.3,0.2,1,0.8c-1.6,3.2-0.7,7.4,1.1,11.4
			C5.9,26.8,4.2,24.2,3.4,21.6z"/>
		<path class="st0" d="M27.6,39.5c-2.4-2.2-9.2-7.9-9.3-11.3c-0.1-3.4-6,0.7,0.1,8.5c0,0-18.6-7.8-15.3-21.2c0.2-0.8-1.1-1-1.4-0.3
			c-1.3,3.2-5.7,11.6,9.8,25.8C22,50.7,27,51.6,28,60C28,60,37.1,48.2,27.6,39.5L27.6,39.5z"/>
		<path class="st0" d="M6.4,21.6c0,2.3,0.7,4.9,1.8,7.4c-0.7-3-0.7-6,0.7-8.3c0.4-0.6-0.3-1.3-0.9-0.9C7.5,20.3,6.9,20.8,6.4,21.6z"
			/>
	</g>
	<path class="st1" d="M50.6,13.9c-5.7-3.7-14.1-3.1-23.7,1.5c-7-3.9-15.8-3.7-15.8-3.7C24.2,15.9,27,23.2,27,23.2
		c7-4.9,16.1-5.8,19.8-3.5c10,6.2-2.2,29.1-14.5,38c17.3-9.8,24-22.2,24.4-30.9C57,21.3,54.8,16.5,50.6,13.9z"/>
	<circle class="st1" cx="40.6" cy="6.6" r="6.6"/>
</g>
<g>
	<g>
		<path class="st2" d="M67.4,37.5h3.4c2.4,0,3.9,1.7,3.9,3.7S73.3,45,70.9,45h-2.7v3.2c0,0.4-0.3,0.8-0.8,0.8s-0.8-0.4-0.8-0.8v-9.8
			C66.7,37.9,67,37.5,67.4,37.5z M68.2,43.6h2.6c1.7,0,2.5-1.1,2.5-2.3s-0.8-2.3-2.5-2.3h-2.6V43.6L68.2,43.6z"/>
		<path class="st2" d="M77.6,42.1h-0.7c-0.4,0-0.7-0.3-0.7-0.7s0.3-0.7,0.7-0.7h0.7v-1.9c0-1.1,0.9-2.1,2-2.1h0.9
			c0.4,0,0.7,0.3,0.7,0.7s-0.3,0.7-0.7,0.7h-0.7c-0.4,0-0.7,0.4-0.7,0.8v1.9h1.6c0.4,0,0.7,0.3,0.7,0.7s-0.3,0.7-0.7,0.7h-1.6v6
			c0,0.4-0.3,0.8-0.8,0.8s-0.8-0.4-0.8-0.8L77.6,42.1L77.6,42.1z"/>
		<path class="st2" d="M84.3,48.2c0,0.4-0.3,0.8-0.8,0.8s-0.8-0.4-0.8-0.8V37.5c0-0.4,0.3-0.8,0.8-0.8s0.8,0.4,0.8,0.8V48.2z"/>
		<path class="st2" d="M87.9,45.4c0.2,1.4,1.3,2.2,2.7,2.2c0.9,0,1.6-0.3,2-0.6c0.1,0,0.2-0.1,0.4-0.1c0.4,0,0.7,0.3,0.7,0.7
			c0,0.3-0.2,0.5-0.3,0.6C93,48.4,92,49,90.6,49c-2.4,0-4.2-1.8-4.2-4.2s1.9-4.2,4.2-4.2s3.9,1.9,3.9,3.8c0,0.5-0.4,1-0.9,1
			L87.9,45.4L87.9,45.4z M87.9,44.2h5.2c-0.1-1.1-1.2-2.3-2.6-2.3S88,42.9,87.9,44.2z"/>
		<path class="st2" d="M99.1,52.5c-2.3,0-3.6-1.4-3.6-2c0-0.4,0.3-0.7,0.7-0.7c0.3,0,0.4,0.1,0.6,0.3c0.5,0.5,1.2,1.1,2.2,1.1
			c1.3,0,2.2-0.4,2.2-1.2c0-1.1-2.5-0.9-2.5-2.2c0-0.5,0.3-0.8,0.3-0.8s-0.1,0-0.2,0c-1.6,0-3.3-1.3-3.3-3.2c0-1.8,1.5-3.2,3.2-3.2
			c0.8,0,1.5,0.3,2.1,0.8c0.3-0.5,0.9-0.8,1.5-0.8h0.2c0.4,0,0.6,0.3,0.6,0.7s-0.3,0.6-0.6,0.6h-0.1c-0.4,0-0.6,0.3-0.7,0.7
			c0.1,0.3,0.2,0.8,0.2,1.2c0,1-0.4,1.6-0.8,2c-0.3,0.5-1.1,0.9-1.1,1.4c0,1,2.6,0.7,2.6,2.7C102.8,51.5,101,52.5,99.1,52.5
			L99.1,52.5z M98.9,45.6c1,0,1.9-0.8,1.9-1.9s-0.8-1.9-1.9-1.9S97,42.7,97,43.8S97.8,45.6,98.9,45.6z"/>
		<path class="st2" d="M105.4,45.4c0.2,1.4,1.3,2.2,2.7,2.2c0.9,0,1.6-0.3,2-0.6c0.1,0,0.2-0.1,0.4-0.1c0.4,0,0.7,0.3,0.7,0.7
			c0,0.3-0.2,0.5-0.3,0.6c-0.3,0.2-1.3,0.7-2.7,0.7c-2.4,0-4.2-1.8-4.2-4.2s1.9-4.2,4.2-4.2s3.9,1.9,3.9,3.8c0,0.5-0.4,1-0.9,1
			L105.4,45.4L105.4,45.4z M105.4,44.2h5.2c-0.1-1.1-1.2-2.3-2.6-2.3S105.5,42.9,105.4,44.2z"/>
		<path class="st2" d="M132.2,48.2c0,0.4-0.3,0.8-0.7,0.8s-0.8-0.4-0.8-0.8v-3.8c0-1.5-1-2.4-2.2-2.4s-2.2,0.9-2.2,2.4v3.8
			c0,0.4-0.3,0.8-0.8,0.8s-0.8-0.4-0.8-0.8v-3.8c0-1.5-1-2.4-2.2-2.4s-2.2,0.9-2.2,2.4v3.8c0,0.4-0.3,0.8-0.8,0.8s-0.8-0.4-0.8-0.8
			v-3.6c0-2.4,1.7-4,3.8-4c1.1,0,2.1,0.5,3,1.5c0.9-1.1,1.9-1.5,3-1.5c2.1,0,3.7,1.6,3.7,4L132.2,48.2L132.2,48.2z"/>
		<path class="st2" d="M135.4,37.4c0.6,0,1,0.5,1,1s-0.4,1-1,1s-1-0.5-1-1S134.8,37.4,135.4,37.4z M136.1,48.2
			c0,0.4-0.3,0.8-0.8,0.8s-0.8-0.4-0.8-0.8v-6.8c0-0.4,0.3-0.8,0.8-0.8s0.8,0.4,0.8,0.8V48.2z"/>
		<path class="st2" d="M141.8,48.8H141c-1.1,0-2-0.9-2-2v-4.7h-0.6c-0.4,0-0.7-0.3-0.7-0.7c0-0.3,0.3-0.7,0.7-0.7h0.6v-1.4
			c0-0.4,0.4-0.8,0.8-0.8s0.8,0.3,0.8,0.8v1.4h1.5c0.4,0,0.7,0.3,0.7,0.7s-0.3,0.7-0.7,0.7h-1.5v4.7c0,0.4,0.3,0.6,0.6,0.6h0.6
			c0.4,0,0.7,0.3,0.7,0.7S142.2,48.8,141.8,48.8L141.8,48.8z"/>
		<path class="st0" d="M159.1,38.2v10c0,0.4-0.4,0.8-0.8,0.8s-0.8-0.3-0.8-0.8v-4.5h-6.7v4.5c0,0.4-0.3,0.8-0.8,0.8
			s-0.8-0.3-0.8-0.8v-10c0-0.4,0.3-0.8,0.8-0.8s0.8,0.3,0.8,0.8v4.2h6.7v-4.2c0-0.4,0.3-0.8,0.8-0.8S159.1,37.7,159.1,38.2z"/>
		<path class="st0" d="M169.3,48.2c0,0.4-0.4,0.8-0.8,0.8s-0.8-0.3-0.8-0.8v-0.4c-0.6,0.6-1.4,1.2-2.7,1.2c-2.2,0-4-1.8-4-4.2
			s1.8-4.2,4-4.2c1.3,0,2.1,0.6,2.7,1.2v-0.4c0-0.4,0.4-0.8,0.8-0.8c0.4,0,0.8,0.3,0.8,0.8V48.2L169.3,48.2z M167.9,44.6
			c0-1.5-1.1-2.7-2.6-2.7s-2.7,1.3-2.7,2.8s1.1,2.9,2.7,2.9s2.6-1.2,2.6-2.8V44.6z"/>
		<path class="st0" d="M178.1,44.6c0-1.6-1.2-2.7-2.5-2.7s-2.5,1-2.5,2.7v3.6c0,0.4-0.4,0.8-0.8,0.8s-0.8-0.4-0.8-0.8v-3.5
			c0-2.3,1.8-4.1,4.1-4.1s4.1,1.8,4.1,4.1v3.5c0,0.4-0.4,0.8-0.8,0.8s-0.8-0.4-0.8-0.8L178.1,44.6L178.1,44.6z"/>
		<path class="st0" d="M189.6,48.2c0,0.4-0.4,0.8-0.8,0.8s-0.8-0.3-0.8-0.8v-0.4c-0.6,0.6-1.4,1.2-2.7,1.2c-2.2,0-4-1.8-4-4.2
			s1.8-4.2,4-4.2c1.3,0,2.1,0.6,2.7,1.2v-4.3c0-0.4,0.4-0.8,0.8-0.8c0.4,0,0.8,0.3,0.8,0.8V48.2L189.6,48.2z M188.2,44.6
			c0-1.5-1.1-2.7-2.6-2.7s-2.7,1.3-2.7,2.8s1.1,2.9,2.7,2.9s2.6-1.2,2.6-2.8V44.6z"/>
		<path class="st2" d="M197.7,44.9c0,1.6,1.2,2.7,2.5,2.7s2.5-1,2.5-2.7v-3.6c0-0.4,0.4-0.8,0.8-0.8s0.8,0.4,0.8,0.8v3.5
			c0,2.3-1.8,4.1-4.1,4.1s-4.1-1.8-4.1-4.1v-3.5c0-0.4,0.4-0.8,0.8-0.8s0.8,0.4,0.8,0.8L197.7,44.9L197.7,44.9z"/>
		<path class="st2" d="M213,44.6c0-1.6-1.2-2.7-2.5-2.7s-2.5,1-2.5,2.7v3.6c0,0.4-0.4,0.8-0.8,0.8s-0.8-0.4-0.8-0.8v-3.5
			c0-2.3,1.8-4.1,4.1-4.1s4.1,1.8,4.1,4.1v3.5c0,0.4-0.4,0.8-0.8,0.8s-0.8-0.4-0.8-0.8L213,44.6L213,44.6z"/>
		<path class="st2" d="M224.5,48.2c0,0.4-0.4,0.8-0.8,0.8s-0.8-0.3-0.8-0.8v-0.4c-0.6,0.6-1.4,1.2-2.7,1.2c-2.2,0-4-1.8-4-4.2
			s1.8-4.2,4-4.2c1.3,0,2.1,0.6,2.7,1.2v-4.3c0-0.4,0.4-0.8,0.8-0.8c0.4,0,0.8,0.3,0.8,0.8V48.2L224.5,48.2z M223.1,44.6
			c0-1.5-1.1-2.7-2.6-2.7s-2.7,1.3-2.7,2.8s1.1,2.9,2.7,2.9s2.6-1.2,2.6-2.8V44.6z"/>
		<path class="st1" d="M241.6,38.2v10c0,0.4-0.4,0.8-0.8,0.8s-0.8-0.3-0.8-0.8v-4.5h-6.7v4.5c0,0.4-0.3,0.8-0.8,0.8
			s-0.8-0.3-0.8-0.8v-10c0-0.4,0.3-0.8,0.8-0.8s0.8,0.3,0.8,0.8v4.2h6.7v-4.2c0-0.4,0.3-0.8,0.8-0.8S241.6,37.7,241.6,38.2z"/>
		<path class="st1" d="M245.2,45.4c0.2,1.4,1.4,2.2,2.7,2.2c0.9,0,1.6-0.3,2-0.6c0.1,0,0.2-0.1,0.4-0.1c0.4,0,0.7,0.3,0.7,0.7
			c0,0.3-0.2,0.5-0.3,0.6c-0.3,0.2-1.3,0.7-2.7,0.7c-2.4,0-4.2-1.8-4.2-4.2s1.9-4.2,4.2-4.2s3.9,1.9,3.9,3.8c0,0.5-0.4,1-0.9,1
			C250.9,45.4,245.2,45.4,245.2,45.4z M245.2,44.2h5.2c-0.1-1.1-1.2-2.3-2.6-2.3S245.3,42.9,245.2,44.2z"/>
		<path class="st1" d="M254.9,48.2c0,0.4-0.4,0.8-0.8,0.8s-0.8-0.4-0.8-0.8v-4c0-2.1,1.4-3.6,3.5-3.6c0.9,0,1.6,0.3,2,0.7
			c0.2,0.2,0.3,0.4,0.3,0.6c0,0.4-0.3,0.7-0.7,0.7c-0.2,0-0.3,0-0.5-0.2c-0.3-0.2-0.7-0.5-1.2-0.5c-1.1,0-1.9,0.9-1.9,2V48.2
			L254.9,48.2z"/>
		<path class="st1" d="M260.8,42.1c-0.4,0-0.7-0.3-0.7-0.7s0.3-0.7,0.7-0.7h4.9c0.5,0,0.8,0.4,0.8,0.8c0,0.3-0.1,0.5-0.3,0.7
			l-4.3,5.2h4c0.4,0,0.7,0.3,0.7,0.7s-0.3,0.7-0.7,0.7h-5.2c-0.5,0-0.8-0.3-0.8-0.8c0-0.3,0.1-0.4,0.3-0.7l4.3-5.2L260.8,42.1
			L260.8,42.1z"/>
	</g>
	<g>
		<path class="st2" d="M70.7,13.4h2.1l4,11.3h-2.2l-0.7-2h-4.4l-0.7,2h-2.2C66.7,24.7,70.7,13.4,70.7,13.4z M70.3,20.6h3l-1.5-4.3
			C71.7,16.4,70.3,20.6,70.3,20.6z"/>
		<path class="st2" d="M77.6,15.6h2.1v1.1c0.6-0.8,1.5-1.2,2.6-1.2c1.4,0,2.4,0.6,2.9,1.6c0.6-0.9,1.7-1.6,3-1.6
			c2.4,0,3.7,1.4,3.7,3.8v5.4h-2.1v-5.3c0-1.3-0.7-2.1-2-2.1c-1.1,0-2,0.8-2,2.4v5h-2.1v-5.3c0-1.3-0.7-2.1-1.9-2.1
			c-1.2,0-2,0.8-2,2.4v5h-2.1V15.6L77.6,15.6z"/>
		<path class="st2" d="M95,23.5v1.2h-2.1V13.2H95v3.5c0.6-0.8,1.7-1.3,2.9-1.3c2.3,0,4.4,1.7,4.4,4.7s-2.2,4.7-4.4,4.7
			C96.7,24.8,95.7,24.3,95,23.5L95,23.5z M100.3,20.1c0-1.6-1.2-2.8-2.7-2.8s-2.7,1.2-2.7,2.8s1.1,2.8,2.7,2.8
			S100.3,21.7,100.3,20.1z"/>
		<path class="st2" d="M104.2,22.3c0.8,0,1.2,0.5,1.2,1.3s-0.5,1.2-1.3,1.2s-1.2-0.5-1.2-1.2S103.5,22.3,104.2,22.3z"/>
		<path class="st2" d="M110.3,13.4h3.9c2.3,0,4.1,1.8,4.1,4s-1.7,4-4.1,4h-1.7v3.2h-2.1L110.3,13.4L110.3,13.4z M112.4,15.3v4.1h1.6
			c1.2,0,2.1-0.9,2.1-2.1s-0.9-2.1-2.1-2.1H112.4z"/>
		<path class="st2" d="M118.9,15.6h1.5v0c0-2.6,1-3.6,3.8-3.6h0.2v1.9c-1.7,0-1.8,0.4-1.8,1.7h1.8v1.9h-1.8v7.2h-2.1v-7.2h-1.5
			L118.9,15.6L118.9,15.6z"/>
		<path class="st2" d="M125.3,13.2h2.1v11.4h-2.1V13.2z"/>
		<path class="st2" d="M128.3,20.2c0-2.6,2.1-4.7,4.7-4.7s4.6,2,4.6,4.6v0.8h-7.3c0.3,1.3,1.3,2.1,2.8,2.1c1.2,0,2.1-0.6,2.5-1.6
			l1.7,1c-0.8,1.5-2.2,2.4-4.2,2.4C130.2,24.8,128.3,22.8,128.3,20.2L128.3,20.2z M130.4,19.1h5.1c-0.3-1.2-1.2-1.9-2.5-1.9
			S130.8,18,130.4,19.1z"/>
		<path class="st2" d="M145.6,23.4c-0.7,0.9-1.7,1.4-2.9,1.4c-2.2,0-4.4-1.7-4.4-4.7s2.2-4.7,4.5-4.7c1.2,0,2.2,0.5,2.9,1.3v-1.2
			h2.1v8.8c0,2.5-1.6,4.6-4.7,4.6c-2.3,0-3.8-1.1-4.6-2.6l1.9-1.1c0.7,1.2,1.4,1.8,2.8,1.8c1.6,0,2.6-1.2,2.6-2.6L145.6,23.4
			L145.6,23.4z M145.7,20.1c0-1.5-1.1-2.8-2.7-2.8s-2.7,1.2-2.7,2.8s1.2,2.8,2.7,2.8S145.7,21.7,145.7,20.1z"/>
		<path class="st2" d="M148.6,20.2c0-2.6,2.1-4.7,4.7-4.7s4.6,2,4.6,4.6v0.8h-7.3c0.3,1.3,1.3,2.1,2.8,2.1c1.2,0,2.1-0.6,2.5-1.6
			l1.7,1c-0.8,1.5-2.2,2.4-4.2,2.4C150.6,24.8,148.6,22.8,148.6,20.2L148.6,20.2z M150.7,19.1h5.1c-0.3-1.2-1.2-1.9-2.5-1.9
			S151.1,18,150.7,19.1z"/>
		<path class="st2" d="M158.6,20.1c0-3,2.2-4.7,4.5-4.7c1.2,0,2.2,0.5,2.9,1.2v-3.4h2.1v11.4H166v-1.2c-0.7,0.9-1.7,1.4-2.9,1.4
			C160.9,24.8,158.6,23.1,158.6,20.1L158.6,20.1z M166.1,20.1c0-1.5-1.1-2.8-2.7-2.8s-2.7,1.2-2.7,2.8s1.2,2.8,2.7,2.8
			S166.1,21.7,166.1,20.1z"/>
		<path class="st2" d="M170.3,12.1c0.8,0,1.3,0.5,1.3,1.3s-0.5,1.3-1.3,1.3s-1.3-0.5-1.3-1.3S169.5,12.1,170.3,12.1z M169.3,15.6
			h2.1v9h-2.1V15.6z"/>
		<path class="st2" d="M172.3,20.2c0-2.6,2.1-4.7,4.7-4.7s4.6,2,4.6,4.6v0.8h-7.3c0.3,1.3,1.3,2.1,2.8,2.1c1.2,0,2.1-0.6,2.5-1.6
			l1.7,1c-0.8,1.5-2.2,2.4-4.2,2.4C174.2,24.8,172.3,22.8,172.3,20.2L172.3,20.2z M174.4,19.1h5.1c-0.3-1.2-1.2-1.9-2.5-1.9
			S174.8,18,174.4,19.1z"/>
		<path class="st2" d="M182.6,15.6h2.1v1.1c0.6-0.8,1.5-1.3,2.7-1.3c2.3,0,3.6,1.4,3.6,3.9v5.4h-2.1v-5.1c0-1.4-0.7-2.3-2-2.3
			c-1.2,0-2.1,0.9-2.1,2.5v5h-2.1L182.6,15.6L182.6,15.6z"/>
		<path class="st2" d="M191.5,22.6l1.9-0.9c0.4,0.9,1.2,1.3,2.2,1.3s1.5-0.5,1.5-1.1c0-0.7-1-0.8-2.1-1c-1.5-0.3-3.2-0.8-3.2-2.7
			c0-1.5,1.4-2.8,3.6-2.8c1.8,0,3,0.7,3.7,1.9l-1.8,0.9c-0.4-0.6-1.1-1-1.9-1c-1,0-1.4,0.5-1.4,1c0,0.6,0.7,0.8,2.1,1
			c1.5,0.3,3.2,0.8,3.2,2.7c0,1.3-1.1,3-3.7,3C193.5,24.8,192.2,24.1,191.5,22.6L191.5,22.6z"/>
		<path class="st2" d="M199.6,15.6h1.5v-1.4l2.1-1.4v2.8h1.8v1.9h-1.8v3.4c0,1.6,0.2,1.8,1.8,1.8v2h-0.3c-2.8,0-3.6-0.9-3.6-3.8
			v-3.4h-1.5L199.6,15.6L199.6,15.6z"/>
		<path class="st2" d="M209.6,19c0-3.2,2.4-5.8,5.8-5.8c2.3,0,4.2,1.2,5.1,2.9l-1.9,1.1c-0.7-1.3-1.8-2-3.2-2
			c-2.1,0-3.7,1.7-3.7,3.8s1.6,3.8,3.8,3.8c1.7,0,2.8-1,3.2-2.4h-3.6v-2h5.9v0.8c0,3-2.1,5.6-5.5,5.6S209.6,22.2,209.6,19L209.6,19z
			"/>
		<path class="st2" d="M222,15.6h2.1V17c0.4-0.9,1.2-1.3,2.3-1.3c0.7,0,1.2,0.1,1.6,0.4l-0.8,2c-0.3-0.2-0.6-0.4-1.2-0.4
			c-1.2,0-1.9,0.6-1.9,2.2v4.8H222V15.6L222,15.6z"/>
		<path class="st2" d="M228,20.1c0-3,2.2-4.7,4.5-4.7c1.2,0,2.2,0.5,2.9,1.3v-1.1h2.1v9h-2.1v-1.2c-0.7,0.9-1.7,1.4-2.9,1.4
			C230.3,24.8,228,23.1,228,20.1z M235.5,20.1c0-1.5-1.1-2.8-2.7-2.8s-2.7,1.2-2.7,2.8s1.2,2.8,2.7,2.8S235.5,21.7,235.5,20.1z"/>
		<path class="st2" d="M238.3,15.6h1.5v0c0-2.6,1-3.6,3.8-3.6h0.2v1.9c-1.7,0-1.9,0.4-1.9,1.7h1.9v1.9h-1.9v7.2h-2.1v-7.2h-1.5
			L238.3,15.6L238.3,15.6z"/>
		<path class="st2" d="M245.7,12.1c0.8,0,1.3,0.5,1.3,1.3s-0.5,1.3-1.3,1.3s-1.3-0.5-1.3-1.3S244.9,12.1,245.7,12.1z M244.7,15.6
			h2.1v9h-2.1V15.6z"/>
		<path class="st2" d="M248,15.6h2.1v1.1c0.6-0.8,1.5-1.3,2.7-1.3c2.3,0,3.6,1.4,3.6,3.9v5.4h-2.1v-5.1c0-1.4-0.7-2.3-2-2.3
			c-1.2,0-2.1,0.9-2.1,2.5v5H248L248,15.6L248,15.6z"/>
		<path class="st2" d="M264.6,23.4c-0.7,0.9-1.7,1.4-3,1.4c-2.2,0-4.4-1.7-4.4-4.7s2.2-4.7,4.5-4.7c1.2,0,2.2,0.5,2.9,1.3v-1.2h2.1
			v8.8c0,2.5-1.6,4.6-4.7,4.6c-2.3,0-3.8-1.1-4.6-2.6l1.9-1.1c0.7,1.2,1.4,1.8,2.8,1.8c1.6,0,2.6-1.2,2.6-2.6L264.6,23.4L264.6,23.4
			z M264.7,20.1c0-1.5-1.1-2.8-2.7-2.8s-2.7,1.2-2.7,2.8s1.2,2.8,2.7,2.8S264.7,21.7,264.7,20.1z"/>
	</g>
</g>
</svg>
